<svg xmlns="http://www.w3.org/2000/svg" xmlns:xlink="http://www.w3.org/1999/xlink" width="658.314" height="672.143" viewBox="0 0 658.314 672.143"><defs><style>.a,.aa,.ab,.ac,.ad,.ae,.af,.ag,.ah,.ai,.aj,.ak,.al,.am,.an,.ap,.b,.c,.d,.e,.f,.g,.h,.i,.j,.k,.l,.m,.n,.o,.p,.q,.r,.s,.t,.u,.v,.w,.x,.y,.z{fill-rule:evenodd;}.a{fill:url(#a);}.b{fill:url(#b);}.c,.x,.z{fill:#fff;}.d{fill:#59caaf;}.e{fill:url(#c);}.f{fill:url(#d);}.g{fill:url(#e);}.h{fill:#0ee0ef;}.i{fill:url(#f);}.j{fill:url(#g);}.k{fill:url(#h);}.l{fill:url(#i);}.m{fill:url(#j);}.n{fill:url(#k);}.o{opacity:0.8;fill:url(#l);}.p{fill:url(#m);}.q{opacity:0.4;fill:url(#n);}.r{opacity:0.6;fill:url(#o);}.s{fill:url(#p);}.t{fill:url(#r);}.u{fill:#bedeff;mix-blend-mode:multiply;isolation:isolate;}.af,.ao,.ap,.u,.z{opacity:0.5;}.v{fill:#215a9e;}.w{fill:url(#s);}.x{opacity:0.2;}.y{fill:url(#t);}.aa{fill:url(#u);}.ab{fill:url(#v);}.ac{fill:#ff89db;}.ad{fill:url(#w);}.ae{fill:#a563ee;}.af,.ag{fill:#26a28e;}.ah{fill:#133b89;}.ai{fill:#3faff6;}.aj{fill:#6d6afd;}.ak{fill:url(#ad);}.al{fill:url(#ae);}.am{fill:url(#af);}.an{fill:url(#ag);}.ao,.ap{fill:url(#ah);}</style><linearGradient id="a" x1="0.119" y1="0.862" x2="1.146" y2="0.12" gradientUnits="objectBoundingBox"><stop offset="0" stop-color="#26a28e"/><stop offset="1" stop-color="#8fe6d8"/></linearGradient><linearGradient id="b" x1="0.474" y1="0.181" x2="0.541" y2="0.99" gradientUnits="objectBoundingBox"><stop offset="0" stop-color="#133b89"/><stop offset="1" stop-color="#133b89"/></linearGradient><linearGradient id="c" x1="0.843" y1="0.362" x2="0.696" y2="0.42" gradientUnits="objectBoundingBox"><stop offset="0" stop-color="#235da3"/><stop offset="1" stop-color="#123a76"/></linearGradient><linearGradient id="d" x1="0.585" y1="0.403" x2="0.436" y2="0.573" gradientUnits="objectBoundingBox"><stop offset="0" stop-color="#c4e0f5"/><stop offset="1" stop-color="#e1e8f6"/></linearGradient><linearGradient id="e" x1="0.554" y1="0.653" x2="0.324" y2="0.046" gradientUnits="objectBoundingBox"><stop offset="0" stop-color="#133b89"/><stop offset="1" stop-color="#26a28e"/></linearGradient><linearGradient id="f" x1="0.329" y1="1.088" x2="0.571" y2="0.255" gradientUnits="objectBoundingBox"><stop offset="0" stop-color="#94e69a"/><stop offset="1" stop-color="#17adc9"/></linearGradient><linearGradient id="g" x1="0.454" y1="0.787" x2="0.599" y2="-0.115" xlink:href="#f"/><linearGradient id="h" x1="0.452" y1="0.747" x2="0.774" y2="-0.904" xlink:href="#f"/><linearGradient id="i" x1="0.387" y1="1.175" x2="0.557" y2="0.16" xlink:href="#f"/><linearGradient id="j" x1="0.587" y1="0.854" x2="0.391" y2="0.055" gradientUnits="objectBoundingBox"><stop offset="0" stop-color="#1c8ef4"/><stop offset="1" stop-color="#00cfdd"/></linearGradient><linearGradient id="k" x1="0.422" y1="0.81" x2="0.572" y2="0.222" gradientUnits="objectBoundingBox"><stop offset="0" stop-color="#6d6afe"/><stop offset="1" stop-color="#3fb0f7"/></linearGradient><linearGradient id="l" x1="0.812" y1="1.445" x2="-0.166" y2="-1.417" gradientUnits="objectBoundingBox"><stop offset="0" stop-color="#965cf2"/><stop offset="1" stop-color="#ff8adc"/></linearGradient><linearGradient id="m" x1="0.922" y1="0.972" x2="-0.776" y2="-0.465" xlink:href="#l"/><linearGradient id="n" x1="1.244" y1="2.645" x2="0.265" y2="-0.217" xlink:href="#l"/><linearGradient id="o" x1="1.91" y1="1.58" x2="0.216" y2="0.145" xlink:href="#l"/><linearGradient id="p" x1="0.584" y1="0.842" x2="0.391" y2="0.057" xlink:href="#j"/><linearGradient id="r" x1="0.578" y1="0.818" x2="0.391" y2="0.053" xlink:href="#j"/><linearGradient id="s" x1="0.659" y1="0.433" x2="0.314" y2="0.578" gradientUnits="objectBoundingBox"><stop offset="0" stop-color="#74c6b9"/><stop offset="1" stop-color="#26a28e"/></linearGradient><linearGradient id="t" x1="0.575" y1="0.807" x2="0.382" y2="0.018" xlink:href="#j"/><linearGradient id="u" x1="0.494" y1="0.198" x2="0.507" y2="0.882" xlink:href="#k"/><linearGradient id="v" x1="0.523" y1="0.887" x2="0.479" y2="0.147" xlink:href="#l"/><linearGradient id="w" x1="0.446" y1="0.695" x2="0.564" y2="0.268" xlink:href="#l"/><linearGradient id="ad" x1="0.467" y1="0.821" x2="0.543" y2="0.149" xlink:href="#j"/><linearGradient id="ae" x1="0.648" y1="0.143" x2="0.428" y2="0.673" xlink:href="#k"/><linearGradient id="af" x1="0.463" y1="0.825" x2="0.54" y2="0.144" xlink:href="#j"/><linearGradient id="ag" x1="0.287" y1="0.192" x2="0.691" y2="0.776" xlink:href="#b"/><linearGradient id="ah" x1="0.247" y1="0.386" x2="0.818" y2="0.643" gradientUnits="objectBoundingBox"><stop offset="0" stop-color="#26a28e"/><stop offset="1" stop-color="#133b89"/></linearGradient></defs><g transform="translate(-707.685)"><path class="a" d="M1293.63,209l262.6-70.364h180.506V706.083l-292.788,63.923c-156.041,34.067-314.323-51.065-355.661-205.341h0C1046.951,410.39,1139.354,250.341,1293.63,209Z" transform="translate(-370.737 -138.64)"/><g transform="translate(741.218 96)"><g transform="translate(0 0)"><g transform="translate(0 226.396)"><path class="b" d="M1294.25,920.445c-9.732-5.626-18.22-18.9-18.965-29.649s6.537-14.906,16.269-9.28,18.22,18.9,18.964,29.65S1303.976,926.068,1294.25,920.445Z" transform="translate(-1275.233 -879.007)"/><path class="c" d="M1306.442,915.5l2.581,1.291-11.459,17.442-10.116-15,3.331,1.3,5.342,5.072Z" transform="translate(-1282.658 -901.19)"/></g><g transform="translate(108.802)"><path class="d" d="M1955.357,1386.436l-378.8-217.783c-2.934-1.4-7.135-2.562-10.124-1.071-2.724,1.359-7.212,4.163-9.2,5.252-1.507.828-6.738,3.849-3.48,5.69,9.586,5.42,370.955,213.359,380.689,218.864a13.813,13.813,0,0,0,7.361,1.288,19.153,19.153,0,0,0,7.973-2.2q2.426-1.358,4.773-2.675c2.111-1.184,3.232-2.614,3.342-3.956C1958,1388.532,1957.158,1387.3,1955.357,1386.436Z" transform="translate(-1552.705 -827.607)"/><g transform="translate(11.643)"><path class="e" d="M1963,497.978c15.267,8.8,27.243,30.081,27.2,47.1l-.65,289.738c-.025,8.595-3.066,14.644-7.965,17.491l-6.975,4.2c-28.906-13.583-17.42-141.881-19.222-184.488l8.189-111.466c-6.886-12.032-33.376-22.532-27.193-47.1L1680.147,373.466l-77.375-52.622h0c.33-1.983-2.088-11.758.067-13.066,2.407-1.46,4.783-2.92,7.144-4.3,6.046-3.577,13.751-1.365,19.41,1.9h0Z" transform="translate(-1594.274 -301.641)"/><g transform="translate(0 4.265)"><path class="f" d="M1583.048,331.859c.048-17.3,12.3-24.3,27.371-15.6l333.6,192.6c15.054,8.694,27.242,29.8,27.194,47.1l-.649,289.738c-.049,17.3-12.318,24.291-27.374,15.6l-333.6-192.6c-15.073-8.7-27.244-29.8-27.2-47.1Z" transform="translate(-1582.397 -312.518)"/><g transform="translate(1.223)"><path class="g" d="M1585.516,325.864c2.584-12.812,13.613-17.22,26.8-9.6l333.6,192.6c13.171,7.606,24.149,24.718,26.656,40.466Z" transform="translate(-1585.516 -312.518)"/><g transform="translate(13.185 7.598)"><path class="h" d="M1688.89,373.585c-2.248-1.3-4.074-.255-4.081,2.326a8.935,8.935,0,0,0,4.054,7.025c2.246,1.3,4.074.255,4.081-2.328A8.938,8.938,0,0,0,1688.89,373.585Z" transform="translate(-1659.059 -356.898)"/><path class="h" d="M1654.613,351.215c-2.248-1.3-4.074-.256-4.081,2.325a8.935,8.935,0,0,0,4.055,7.025c2.246,1.3,4.073.255,4.081-2.328A8.936,8.936,0,0,0,1654.613,351.215Z" transform="translate(-1638.223 -343.3)"/><path class="h" d="M1623.222,332.453c-2.248-1.3-4.073-.255-4.081,2.325a8.937,8.937,0,0,0,4.055,7.025c2.246,1.3,4.073.255,4.08-2.328A8.934,8.934,0,0,0,1623.222,332.453Z" transform="translate(-1619.141 -331.895)"/></g></g></g></g><g transform="translate(19.167 39.863)"><g transform="translate(6.7 151.775)"><path class="i" d="M1634.026,823.481c-7.836-4.337-14.687-14.844-15.308-23.475s5.226-12.112,13.062-7.775,14.688,14.85,15.307,23.476S1641.858,827.815,1634.026,823.481Z" transform="translate(-1618.673 -790.365)"/><g transform="translate(35.965 14.36)"><path class="j" d="M1710.482,851.618l-.015,5.31,47.274,27,.015-5.314Z" transform="translate(-1710.438 -841.959)"/><path class="k" d="M1710.393,881l21.386,12.343.014-5.308-21.38-12.343Z" transform="translate(-1710.393 -856.595)"/><path class="l" d="M1751.079,850.384l-40.524-23.4-.015,5.308,40.523,23.4Z" transform="translate(-1710.483 -826.986)"/></g></g><path class="m" d="M1602.033,417.8a19.288,19.288,0,0,1,1.472-7.741,11.363,11.363,0,0,1,4.375-5.189,11.231,11.231,0,0,1,6.936-1.517,19.479,19.479,0,0,1,7.836,2.679l106.589,61.134c5.682,3.259,10.41,8.765,13.656,14.389s5.613,12.439,5.6,18.972l-.444,260.345a18.151,18.151,0,0,1-2.124,9.014,10.579,10.579,0,0,1-9.534,5.479,18.528,18.528,0,0,1-8.964-2.726L1620.848,711.5c-5.683-3.26-10.411-8.756-13.659-14.382s-5.613-12.443-5.6-18.979l.446-260.345Zm2.482,4.5,141.492,81.2,0-2.979c.011-6.093-2.25-12.5-5.27-17.728s-7.443-10.43-12.739-13.469l-106.589-61.134a17.033,17.033,0,0,0-6.812-2.356,8.766,8.766,0,0,0-5.413,1.151,8.9,8.9,0,0,0-3.4,4.077,16.845,16.845,0,0,0-1.265,6.737l-.007,4.5ZM1746,506.374l-141.492-81.2-.433,252.977c-.011,6.095,2.249,12.5,5.269,17.728s7.442,10.428,12.741,13.467l106.587,61.135a16.13,16.13,0,0,0,7.728,2.4,8.122,8.122,0,0,0,7.375-4.232,15.755,15.755,0,0,0,1.791-7.774Z" transform="translate(-1601.587 -403.3)"/><g transform="translate(101.117 59.74)"><path class="h" d="M1864.038,565.524a9.769,9.769,0,0,1-4.564-7c-.185-2.572,1.558-3.61,3.894-2.318a9.778,9.778,0,0,1,4.563,7C1868.117,565.78,1866.373,566.817,1864.038,565.524Z" transform="translate(-1859.461 -555.652)"/><path class="h" d="M1896.028,583.483a9.771,9.771,0,0,1-4.563-7c-.185-2.572,1.558-3.611,3.894-2.318a9.775,9.775,0,0,1,4.564,7C1900.107,583.738,1898.363,584.774,1896.028,583.483Z" transform="translate(-1878.907 -566.568)"/><path class="h" d="M1927.831,602.563a9.771,9.771,0,0,1-4.563-7c-.185-2.572,1.558-3.611,3.894-2.318a9.778,9.778,0,0,1,4.563,7C1931.91,602.818,1930.165,603.855,1927.831,602.563Z" transform="translate(-1898.239 -578.167)"/></g><path class="n" d="M1610.753,513.619l1.386.009-.019,2.772-1.386-.009.019-2.772Zm.217-6.418,1.386.009-.019,2.772-1.386-.009.019-2.772Zm-.264,13.349,1.386.009-.019,2.772-1.387-.009.019-2.772Zm-.047,6.931,1.387.008-.019,2.772-1.386-.009.019-2.772Zm-.046,6.931,1.386.009-.019,2.773-1.386-.009.019-2.772Zm-.047,6.931,1.385.009-.018,2.773-1.385-.009.018-2.773Zm-.046,6.931,1.386.009-.019,2.772-1.386-.009.018-2.772Zm-.046,6.931,1.386.009-.018,2.772-1.387-.009.019-2.772Zm-.047,6.931,1.387.009-.019,2.772-1.386-.009.018-2.772Zm-.045,6.93,1.386.009-.011,1.646-1.386-.009.011-1.646Zm.526,7.035c.169.918.4,1.852.656,2.751l1.333-.38c-.243-.857-.468-1.764-.629-2.639l-1.359.268Zm2.033,6.753c.349.871.74,1.73,1.147,2.575l1.246-.609c-.4-.813-.773-1.649-1.11-2.489l-1.284.523Zm3.182,6.279c.493.8,1.01,1.579,1.552,2.348l1.131-.8c-.527-.745-1.026-1.5-1.5-2.277l-1.178.731Zm4.175,5.666c.618.707,1.272,1.393,1.946,2.049l.965-.995c-.646-.629-1.277-1.291-1.871-1.971l-1.039.916Zm5.174,4.811c.777.57,1.542,1.081,2.368,1.576l.7-1.2c-.783-.467-1.512-.956-2.247-1.5l-.821,1.116Zm5.973,3.658.693-1.2,2.4,1.387-.693,1.2-2.4-1.387Zm6,3.467.693-1.2,2.4,1.387-.693,1.2-2.4-1.386Zm6,3.467.693-1.2,2.4,1.386-.693,1.2-2.4-1.387Zm6,3.466.693-1.2,2.4,1.387-.693,1.2-2.4-1.387Zm6,3.466.693-1.2,2.4,1.387-.693,1.2-2.4-1.386Zm6,3.466.694-1.2,2.4,1.386-.693,1.2-2.4-1.386Zm6,3.466.693-1.2,2.4,1.386-.693,1.2-2.4-1.386Zm6,3.465.693-1.2,2.4,1.386-.693,1.2-2.4-1.386Zm6,3.466.693-1.2c.792.457,1.56.911,2.385,1.3l-.6,1.252c-.866-.417-1.646-.871-2.481-1.354Zm6.573,2.744a12.594,12.594,0,0,0,2.92.24l-.062-1.386a10.873,10.873,0,0,1-2.593-.214l-.265,1.36Zm7.206-.921a9.214,9.214,0,0,0,2.339-1.85l-1.025-.934a7.8,7.8,0,0,1-1.992,1.573l.678,1.21Zm4.583-5.64a16.531,16.531,0,0,0,.729-2.8l-1.367-.228a15.463,15.463,0,0,1-.667,2.559l1.3.467Zm1.009-7.052-1.386-.009.019-2.771,1.386.009-.019,2.771Zm.047-6.931-1.387-.009.019-2.772,1.386.009-.019,2.772Zm.046-6.93-1.385-.009.018-2.773,1.386.009-.019,2.773Zm.048-6.931-1.386-.009.018-2.772,1.386.009-.019,2.772Zm.047-6.931-1.386-.009.018-2.772,1.386.008-.018,2.772Zm.046-6.931-1.386-.009.018-2.772,1.386.009-.018,2.772Zm.046-6.931-1.386-.009.018-2.772,1.386.009-.018,2.772Zm.045-6.931-1.385-.009.018-2.773,1.386.009-.019,2.772Zm.047-6.93-1.386-.009.018-2.772,1.386.009-.018,2.772Zm-.019-6.979a25.434,25.434,0,0,0-.327-2.824l-1.366.232c.14.892.257,1.781.311,2.682l1.382-.09Zm-1.289-6.954c-.266-.9-.571-1.8-.907-2.672l-1.295.494c.323.846.618,1.71.875,2.577l1.327-.4Zm-2.613-6.543c-.426-.848-.879-1.65-1.346-2.474l-1.193.706a26.8,26.8,0,0,1,1.3,2.4l1.236-.628Zm-3.661-6.007c-.551-.755-1.132-1.508-1.738-2.22l-1.06.894c.585.693,1.145,1.412,1.679,2.145l1.119-.819Zm-4.64-5.3c-.687-.638-1.4-1.285-2.143-1.857l-.855,1.091c.714.566,1.379,1.154,2.046,1.773l.952-1.007Zm-5.668-4.234-.694,1.2-2.4-1.386.693-1.2,2.4,1.387Zm-6-3.467-.693,1.2-2.4-1.387.692-1.2,2.4,1.387Zm-6-3.466-.693,1.2-2.4-1.386.693-1.2,2.4,1.386Zm-6-3.466-.693,1.2-2.4-1.386.693-1.2,2.4,1.386Zm-6-3.466-.693,1.2-2.4-1.386.693-1.2,2.4,1.386Zm-6-3.466-.694,1.2-2.4-1.386.693-1.2,2.4,1.386Zm-6-3.465-.693,1.2-2.4-1.387.693-1.2,2.4,1.386Zm-6-3.466-.693,1.2-2.4-1.387.694-1.2,2.4,1.386Zm-6-3.465-.693,1.2-2.4-1.386.693-1.2,2.4,1.386Zm-6.122-3.4a22.007,22.007,0,0,0-2.717-.963l-.345,1.344a16.56,16.56,0,0,1,2.5.888l.559-1.269Zm-7.071-1.368a9.478,9.478,0,0,0-2.9.715l.552,1.271-.009,0a8.245,8.245,0,0,1,2.475-.608l-.123-1.381Zm-6.438,3.4a11.384,11.384,0,0,0-1.534,2.519l1.267.565a9.823,9.823,0,0,1,1.339-2.2Z" transform="translate(-1606.925 -459.751)"/><g transform="translate(9.637 56.493)"><g transform="translate(10.834 0.121)"><path class="o" d="M1659.358,699.223c5.284,9.154,12.585,17.123,20.66,21.786,5.273,3.04,10.276,4.315,14.581,3.928l3.908,10.108c-5.436.478-11.78-1.083-18.512-4.967-10.271-5.928-19.521-16.075-26.2-27.615Z" transform="translate(-1653.793 -639.8)"/><path class="p" d="M1769.638,631.076c6.682,11.535,10.8,24.607,10.762,36.338-.047,15.754-7.521,25.262-18.632,26.207l-3.908-10.108c8.729-.782,14.642-8.209,14.676-20.637.028-9.244-3.208-19.5-8.5-28.611Z" transform="translate(-1717.053 -598.374)"/><path class="q" d="M1692.439,552.8c10.2,5.894,19.453,16.008,26.139,27.582l-5.6,3.188c-5.254-9.14-12.557-17.1-20.57-21.734-5.33-3.079-10.3-4.3-14.608-3.942l-3.938-10.134C1679.3,547.287,1685.671,548.9,1692.439,552.8Z" transform="translate(-1665.993 -547.678)"/></g><path class="r" d="M1644.794,547.371l3.938,10.133c-8.763.763-14.671,8.185-14.71,20.578-.023,9.278,3.241,19.549,8.466,28.632l-5.565,3.24c-6.71-11.589-10.8-24.607-10.762-36.411C1626.206,557.823,1633.712,548.373,1644.794,547.371Z" transform="translate(-1626.162 -547.371)"/></g><g transform="translate(95.166 84.531)"><path class="s" d="M1844.5,625.906a9.294,9.294,0,0,1,.712-3.738,5.517,5.517,0,0,1,2.13-2.526,5.431,5.431,0,0,1,3.377-.74,9.287,9.287,0,0,1,3.789,1.3l26.957,15.567a20.348,20.348,0,0,1,9.256,16.038l-.212,31.725a8.735,8.735,0,0,1-1.028,4.359,5.151,5.151,0,0,1-4.643,2.666,8.833,8.833,0,0,1-4.338-1.316l-26.956-15.567a20.328,20.328,0,0,1-9.257-16.038l.213-31.725Zm1.979-3.181a7.941,7.941,0,0,0-.6,3.183l-.213,31.724a18.962,18.962,0,0,0,8.57,14.84l26.956,15.567a7.471,7.471,0,0,0,3.646,1.132,3.788,3.788,0,0,0,3.446-1.979,7.362,7.362,0,0,0,.844-3.668l.212-31.724a18.971,18.971,0,0,0-8.569-14.84l-26.956-15.567a7.91,7.91,0,0,0-3.215-1.112,4.08,4.08,0,0,0-2.533.535A4.165,4.165,0,0,0,1846.475,622.725Z" transform="translate(-1844.284 -618.876)"/><path class="s" d="M1844.5,773.725a9.3,9.3,0,0,1,.712-3.738,5.52,5.52,0,0,1,2.13-2.526,5.433,5.433,0,0,1,3.377-.74,9.279,9.279,0,0,1,3.789,1.3l26.957,15.567a20.348,20.348,0,0,1,9.256,16.038l-.212,31.725a8.737,8.737,0,0,1-1.028,4.359,5.149,5.149,0,0,1-4.643,2.666,8.829,8.829,0,0,1-4.338-1.316l-26.956-15.567a20.326,20.326,0,0,1-9.257-16.038l.213-31.725Zm1.979-3.18a7.941,7.941,0,0,0-.6,3.183l-.213,31.724a18.962,18.962,0,0,0,8.57,14.839l26.956,15.567a7.476,7.476,0,0,0,3.646,1.132,3.791,3.791,0,0,0,3.446-1.979,7.359,7.359,0,0,0,.844-3.668l.212-31.724a18.971,18.971,0,0,0-8.569-14.839l-26.956-15.567a7.9,7.9,0,0,0-3.215-1.112,4.078,4.078,0,0,0-2.533.535A4.158,4.158,0,0,0,1846.475,770.545Z" transform="translate(-1844.284 -708.733)"/><path class="t" d="M1845.244,927.118a9.317,9.317,0,0,1,.712-3.738,5.52,5.52,0,0,1,2.131-2.526,5.43,5.43,0,0,1,3.377-.74,9.292,9.292,0,0,1,3.79,1.3l26.957,15.567a20.348,20.348,0,0,1,9.257,16.038l-.212,4a8.721,8.721,0,0,1-1.028,4.359,5.151,5.151,0,0,1-4.643,2.666,8.835,8.835,0,0,1-4.339-1.316l-26.956-15.567a20.327,20.327,0,0,1-9.258-16.038l.213-4Zm1.979-3.181a7.923,7.923,0,0,0-.6,3.183l-.212,4a18.957,18.957,0,0,0,8.57,14.839l26.956,15.568a7.465,7.465,0,0,0,3.645,1.132,3.789,3.789,0,0,0,3.447-1.979,7.358,7.358,0,0,0,.843-3.668l.213-4a18.973,18.973,0,0,0-8.569-14.84l-26.956-15.567a7.911,7.911,0,0,0-3.216-1.112,4.081,4.081,0,0,0-2.533.535A4.151,4.151,0,0,0,1847.223,923.938Z" transform="translate(-1844.738 -801.978)"/></g><g transform="translate(4.409 213.456)"><path class="u" d="M1613.033,961.429c.028-10.188,13.415-11.77,15.756-11.545l110.154,64.135c8.865,5.12,16.044,17.552,16.015,27.74l-.926,56.767c-.029,10.188-7.255,14.305-16.122,9.186l-110.153-64.135c-8.876-5.125-14.956-17.007-14.927-27.2Z" transform="translate(-1612.831 -949.002)"/><g transform="translate(0.06)"><path class="v" d="M1619.428,958.49c.009-3.377-1.185-5.47.261-7.317.921-1.174,4.126-2.6,5.482-3.066,2.624-.909,5.954-.439,9.576,1.652l104.685,60.951c8.425,4.866,15.247,16.68,15.22,26.363l-.363,48.6c-.008,3-.636,6.846-2.939,8.953a13.1,13.1,0,0,1-6.653,3.178c-2.194.179-3.042-1.849-5.729-3.4l-104.683-60.95c-8.436-4.871-15.248-16.681-15.221-26.363Z" transform="translate(-1616.625 -947.666)"/><path class="w" d="M1613.347,962.148c.027-9.683,6.884-13.6,15.319-8.731l104.685,60.951c8.425,4.865,15.247,16.68,15.219,26.363l-.363,48.6c-.028,9.682-6.895,13.6-15.321,8.731L1628.2,1037.111c-8.435-4.87-15.248-16.681-15.22-26.363Z" transform="translate(-1612.983 -949.889)"/><path class="x" d="M1645.4,1029.1c10.208,2.7,19.342,14.782,20.4,26.987s-6.362,19.908-16.571,17.208-19.342-14.783-20.4-26.987S1635.2,1026.4,1645.4,1029.1Z" transform="translate(-1622.557 -996.84)"/><path class="c" d="M1659.564,1055.456c5.5,1.455,10.428,7.97,11,14.549s-3.429,10.734-8.934,9.279-10.429-7.971-11-14.55,3.431-10.734,8.934-9.278Zm.484,5.585c-2.923-.772-5.048,1.433-4.746,4.929s2.919,6.954,5.843,7.728,5.048-1.434,4.745-4.928S1662.971,1061.815,1660.048,1061.042Z" transform="translate(-1635.835 -1013.013)"/><path class="x" d="M1737.55,1088.15c.008-2.584,1.838-3.6,4.088-2.262l68.216,38.692a9.142,9.142,0,0,1,4.062,7.1v5.112c-.008,2.583-1.84,3.6-4.089,2.261l-68.216-38.692a9.137,9.137,0,0,1-4.062-7.1Z" transform="translate(-1688.704 -1031.33)"/><path class="x" d="M1737.549,1137.914c0-1.526,1.085-2.125,2.414-1.336l40.282,22.848a5.4,5.4,0,0,1,2.4,4.194v3.019c0,1.526-1.086,2.124-2.414,1.335l-40.282-22.848a5.4,5.4,0,0,1-2.4-4.195Z" transform="translate(-1688.704 -1062.291)"/></g></g><g transform="translate(5.222 182.775)"><path class="y" d="M1615.067,874.276c.013-4.341,3.087-6.1,6.868-3.914q60.239,34.55,120.441,69.14a15.051,15.051,0,0,1,6.823,11.82l-.162,4.176c-.013,4.341-3.091,6.1-6.869,3.914q-60.239-34.551-120.44-69.14a15.039,15.039,0,0,1-6.824-11.819Z" transform="translate(-1614.905 -869.423)"/><path class="z" d="M1623.542,889.052c0-1.6,1.139-2.248,2.532-1.443,14.809,8.494,106.027,61.151,120.834,69.643a5.549,5.549,0,0,1,2.517,4.359l-.06,1.539c0,1.6-1.14,2.248-2.533,1.444-14.81-8.494-106.027-61.149-120.834-69.643a5.547,5.547,0,0,1-2.516-4.358Z" transform="translate(-1620.119 -880.267)"/><path class="c" d="M1623.542,889.052c0-1.6,1.139-2.249,2.533-1.444,14.809,8.494,60.018,34.514,74.825,43.007a5.55,5.55,0,0,1,2.516,4.359l-.06,1.539c-.005,1.6-1.14,2.248-2.533,1.444-14.809-8.494-60.018-34.513-74.825-43.007a5.546,5.546,0,0,1-2.516-4.358Z" transform="translate(-1620.119 -880.267)"/></g></g><g transform="translate(173.191 128.161)"><path class="aa" d="M1994.831,642.707a18.954,18.954,0,0,1,1.448-7.629,11.064,11.064,0,0,1,4.267-5.065,10.872,10.872,0,0,1,6.766-1.478,18.94,18.94,0,0,1,7.722,2.643l180.527,103.384c5.308,3.066,10.1,8.3,13.555,14.288s5.582,12.734,5.565,18.831l-.445,260.346a17.771,17.771,0,0,1-2.086,8.875,10.3,10.3,0,0,1-9.292,5.341,18,18,0,0,1-8.827-2.689L2013.505,936.171c-5.314-3.07-10.1-8.3-13.555-14.28s-5.582-12.737-5.565-18.839l.446-260.346Zm3.221-6.848a17.045,17.045,0,0,0-1.289,6.848l-.445,260.346c-.016,5.754,2.013,12.164,5.306,17.868s7.832,10.675,12.844,13.569l180.524,103.385a16.069,16.069,0,0,0,7.866,2.436,8.4,8.4,0,0,0,7.617-4.37,15.871,15.871,0,0,0,1.828-7.913l.444-260.346c.016-5.756-2.014-12.165-5.307-17.868s-7.833-10.676-12.842-13.57L2014.072,632.859a17.007,17.007,0,0,0-6.927-2.391,8.972,8.972,0,0,0-5.583,1.19A9.149,9.149,0,0,0,1998.052,635.859Z" transform="translate(-1994.385 -628.484)"/><path class="ab" d="M2258.421,811.722c-.1.95-.144,1.883-.15,2.838h.792l109,62.486c.017.669.009,1.343.007,2l1.386,0c0-.935.007-1.836-.038-2.766l.027-.047-109.75-62.917c.022-.484.059-.967.11-1.456l-1.378-.147Zm-.16,5.368,1.387,0-.01,2.772-1.386,0,.009-2.772Zm-.024,6.93,1.386,0-.01,2.772-1.386,0,.009-2.773Zm-.023,6.931,1.386.005-.009,2.771-1.387,0,.01-2.772Zm-.023,6.931,1.385,0-.01,2.773-1.386,0,.01-2.772Zm-.024,6.931,1.387,0-.009,2.773-1.386,0,.008-2.772Zm-.022,6.931,1.386,0-.009,2.772-1.387,0,.009-2.772Zm-.022,6.93,1.386,0-.01,2.772-1.385,0,.009-2.773Zm-.024,6.931,1.386,0-.009,2.772-1.386,0,.009-2.773Zm-.022,6.931,1.386,0-.009,2.772-1.386,0,.009-2.772Zm-.022,6.931,1.385,0-.009,2.773-1.385,0,.009-2.772Zm-.024,6.93,1.386.005-.009,2.772-1.386,0,.009-2.773Zm-.022,6.931,1.386.005-.008,2.771-1.387,0,.009-2.772Zm-.021,6.931,1.385,0-.009,2.773-1.385,0,.009-2.773Zm-.023,6.931,1.387,0-.01,2.773-1.386-.005.008-2.772Zm-.021,6.931,1.386,0-.009,2.772-1.387,0,.01-2.771Zm-.022,6.93,1.386,0-.009,2.772-1.386,0,.009-2.773Zm-.023,6.931,1.386,0-.01,2.772-1.385,0,.008-2.773Zm-.022,6.931,1.386,0-.008,2.772-1.387,0,.009-2.772Zm-.021,6.931,1.386,0-.009,2.773-1.386,0,.009-2.772Zm-.022,6.931,1.386,0-.009,2.772-1.386,0,.009-2.772Zm-.022,6.931,1.386,0-.008,2.771-1.386,0,.009-2.772Zm-.022,6.93,1.386.005-.009,2.772-1.386,0,.009-2.773Zm-.022,6.932,1.387,0-.009,2.772-1.386,0,.008-2.771Zm.02,6.966a26.885,26.885,0,0,0,.254,2.819l1.374-.185c-.118-.9-.2-1.8-.244-2.7l-1.384.069Zm1.031,6.977c.22.914.469,1.815.746,2.713l1.324-.41q-.405-1.3-.724-2.632l-1.346.329Zm2.165,6.684c.351.869.729,1.725,1.126,2.574l1.254-.591c-.385-.827-.755-1.661-1.1-2.506l-1.282.523Zm3.068,6.312c.467.814.946,1.613,1.452,2.4l1.165-.749c-.491-.771-.96-1.55-1.416-2.343l-1.2.689Zm3.861,5.858c.544.718,1.159,1.526,1.761,2.192l1.053-.9c-.591-.682-1.166-1.411-1.711-2.131l-1.1.839Zm4.633,5.284c.684.664,1.365,1.274,2.075,1.906l.9-1.056c-.677-.541-1.381-1.237-2.007-1.844l-.968.993Zm5.437,4.481c.788.532,1.575,1.005,2.4,1.481l.693-1.2c-.8-.46-1.555-.916-2.318-1.431l-.774,1.15Zm6,3.561.693-1.2,2.4,1.386-.693,1.2-2.4-1.386Zm6,3.467.693-1.2,2.4,1.386-.693,1.2-2.4-1.387Zm6,3.466.692-1.2,2.4,1.387-.694,1.2-2.4-1.387Zm6,3.467.692-1.2,2.4,1.386-.693,1.2-2.4-1.387Zm6,3.466.693-1.2,2.4,1.386-.693,1.2-2.4-1.386Zm6,3.466.694-1.2,2.4,1.386-.693,1.2-2.4-1.386Zm6,3.466.693-1.2,2.4,1.386-.693,1.2-2.4-1.386Zm6,3.465.693-1.2,2.4,1.386-.693,1.2-2.4-1.387Zm6,3.465.693-1.2,2.4,1.387-.693,1.2-2.4-1.386Zm6,3.466.693-1.2,2.4,1.387-.693,1.2-2.4-1.386Zm6,3.465.693-1.2c.794.458,1.586.932,2.39,1.373l-.665,1.217c-.813-.449-1.614-.927-2.418-1.39Zm6.306,3.149a21.045,21.045,0,0,0,2.773.757l.254-1.363a19.4,19.4,0,0,1-2.572-.7l-.456,1.31Zm7.108.991a12.064,12.064,0,0,0,2.865-.627l-.466-1.3a10.612,10.612,0,0,1-2.539.552l.141,1.38Zm6.649-2.87a12.14,12.14,0,0,0,1.927-2.211l-1.146-.779a10.722,10.722,0,0,1-1.707,1.959l.926,1.031Zm3.819-6.117a21.418,21.418,0,0,0,.686-2.783l-1.365-.24a19.931,19.931,0,0,1-.64,2.594l1.319.429Zm1.052-7.041-1.386,0,.01-2.773,1.386,0-.01,2.771Zm.025-6.929-1.386,0,.009-2.772,1.386,0-.009,2.773Zm.023-6.931-1.385,0,.009-2.772,1.386,0-.01,2.773Zm.024-6.931-1.386,0,.01-2.772,1.386,0-.01,2.772Zm.023-6.931-1.386,0,.009-2.773,1.386,0-.009,2.772Zm.023-6.931-1.386,0,.009-2.773,1.386,0-.009,2.772Zm.023-6.931-1.387,0,.009-2.771,1.386,0-.008,2.772Zm.022-6.93-1.386-.005.008-2.772,1.387,0-.009,2.773Zm.022-6.932-1.386,0,.009-2.773,1.386.005-.009,2.772Zm.022-6.931-1.387,0,.009-2.772,1.386,0-.009,2.772Zm.022-6.93-1.386,0,.009-2.772,1.386,0-.009,2.772Zm.023-6.931-1.386-.005.01-2.772,1.385,0-.009,2.773Zm.022-6.931-1.387-.005.01-2.772,1.386,0-.009,2.772Zm.022-6.931-1.386,0,.009-2.773,1.387,0-.009,2.772Zm.022-6.931-1.386,0,.009-2.773,1.386,0-.009,2.772Zm.023-6.931-1.386,0,.009-2.772,1.386,0-.009,2.772Zm.022-6.931-1.386,0,.009-2.772,1.386,0-.009,2.772Zm.022-6.931-1.386,0,.009-2.773,1.386,0-.009,2.773Zm.022-6.931-1.386,0,.009-2.772,1.385,0-.008,2.772Zm.022-6.931-1.386,0,.009-2.773,1.387,0-.01,2.772Zm.022-6.93-1.386-.005.01-2.772,1.386,0-.009,2.773Zm.022-6.931-1.385,0,.009-2.772,1.385,0-.009,2.773Zm.023-6.931-1.387,0,.009-2.773,1.387.005-.009,2.771Zm-.5-13.951-1.366.237c-.149-.892-.344-1.788-.556-2.666l1.346-.331c.221.907.423,1.84.576,2.761Zm-1.771-6.811-1.309.457c-.3-.858-.615-1.721-.964-2.559l1.282-.528c.353.871.684,1.741.99,2.63Zm-2.74-6.459-1.239.622c-.409-.812-.844-1.619-1.3-2.406l1.2-.689c.465.814.911,1.636,1.332,2.473Zm-3.566-6.045-1.144.783c-.516-.755-1.046-1.49-1.6-2.219l1.1-.842c.57.739,1.114,1.509,1.642,2.278Zm-4.336-5.523-1.024.934q-.916-1.013-1.894-1.968l.968-.992q1.006.983,1.951,2.026Zm-5.121-4.825-.86,1.088c-.713-.567-1.439-1.091-2.19-1.6l.767-1.154c.778.519,1.549,1.086,2.283,1.669Zm-5.884-3.834-.693,1.2-2.4-1.387.694-1.2,2.4,1.387Zm-6-3.467-.694,1.2-2.4-1.387.694-1.2,2.4,1.386Zm-6-3.467-.694,1.2-2.4-1.386.693-1.2,2.4,1.385Zm-6-3.466-.692,1.2-2.4-1.386.693-1.2,2.4,1.385Zm-6-3.466-.692,1.2-2.4-1.386.693-1.2,2.4,1.386Zm-6-3.465-.692,1.2-2.4-1.387.693-1.2,2.4,1.387Zm-6-3.466-.693,1.2-2.4-1.387.694-1.2,2.4,1.387Zm-6-3.466-.692,1.2-2.4-1.386.693-1.2,2.4,1.386Zm-6-3.466-.693,1.2-2.4-1.386.693-1.2,2.4,1.386Zm-6-3.466-.694,1.2-2.4-1.385.693-1.2,2.4,1.386Zm-6-3.466-.694,1.2-2.4-1.386.693-1.2,2.4,1.386Zm-6.084-3.426a23.287,23.287,0,0,0-2.635-1.09l-.449,1.311a23.651,23.651,0,0,1,2.484,1.029l.6-1.25Zm-6.841-2.032a14.876,14.876,0,0,0-2.909,0l.149,1.379a12.839,12.839,0,0,1,2.626,0l.135-1.379Zm-7.12,1.254a10.947,10.947,0,0,0-2.41,1.694l.939,1.019a9.626,9.626,0,0,1,2.113-1.485l-.642-1.228Zm-5.055,5.174a16.089,16.089,0,0,0-1.112,2.671l1.321.42a15.509,15.509,0,0,1,1.016-2.441Z" transform="translate(-2154.483 -731.742)"/><g transform="translate(178.297 111.589)"><path class="ac" d="M2452.307,920.008a6.872,6.872,0,0,1-3.21-4.923c-.13-1.809,1.1-2.54,2.739-1.63a6.879,6.879,0,0,1,3.21,4.923C2455.175,920.187,2453.948,920.916,2452.307,920.008Z" transform="translate(-2449.087 -913.064)"/><path class="ac" d="M2474.805,932.639a6.873,6.873,0,0,1-3.21-4.923c-.13-1.809,1.1-2.54,2.739-1.63a6.876,6.876,0,0,1,3.21,4.923C2477.674,932.819,2476.448,933.548,2474.805,932.639Z" transform="translate(-2462.764 -920.742)"/><path class="ac" d="M2497.175,946.06a6.873,6.873,0,0,1-3.21-4.923c-.13-1.809,1.1-2.54,2.739-1.63a6.876,6.876,0,0,1,3.21,4.922C2500.045,946.24,2498.817,946.969,2497.175,946.06Z" transform="translate(-2476.362 -928.901)"/></g><path class="ad" d="M2269.559,873.165a9.3,9.3,0,0,1,.711-3.738,5.513,5.513,0,0,1,2.131-2.526,5.428,5.428,0,0,1,3.377-.74,9.291,9.291,0,0,1,3.79,1.3l51.455,30.092a20.345,20.345,0,0,1,9.258,16.036l-.213,31.725a8.741,8.741,0,0,1-1.028,4.36,5.154,5.154,0,0,1-4.642,2.666,8.829,8.829,0,0,1-4.339-1.317L2278.6,920.925a20.335,20.335,0,0,1-9.255-16.034l.214-31.726Zm1.978-3.181a7.932,7.932,0,0,0-.6,3.184l-.213,31.724a18.987,18.987,0,0,0,8.568,14.839l51.457,30.092a7.491,7.491,0,0,0,3.646,1.132,3.974,3.974,0,0,0,2.007-.5,3.933,3.933,0,0,0,1.438-1.475,7.356,7.356,0,0,0,.845-3.669l.212-31.725a18.977,18.977,0,0,0-8.569-14.839l-51.454-30.092a7.931,7.931,0,0,0-3.216-1.111,4.08,4.08,0,0,0-2.532.535A4.155,4.155,0,0,0,2271.537,869.984Z" transform="translate(-2161.528 -772.949)"/><path class="ae" d="M2414.813,970.52a12.06,12.06,0,0,1-5.632-8.639c-.229-3.174,1.923-4.456,4.806-2.861a12.066,12.066,0,0,1,5.632,8.639C2419.848,970.835,2417.7,972.114,2414.813,970.52Z" transform="translate(-2246.522 -828.994)"/><g transform="translate(106.057 277.993)"><path class="af" d="M2264.913,1339.125a1.684,1.684,0,0,1,.67-1.512,1.662,1.662,0,0,1,1.719.15l7.179,4.146a5.235,5.235,0,0,1,2.373,4.11l-.056,8.448c0,1.51-1.076,2.12-2.39,1.362l-7.177-4.146a5.232,5.232,0,0,1-2.374-4.111Z" transform="translate(-2264.857 -1337.437)"/><path class="af" d="M2303.068,1361.6a1.683,1.683,0,0,1,.669-1.512,1.665,1.665,0,0,1,1.72.151l7.178,4.146a5.237,5.237,0,0,1,2.374,4.111l-.057,8.448c0,1.51-1.075,2.12-2.388,1.361l-7.178-4.145a5.234,5.234,0,0,1-2.374-4.111Z" transform="translate(-2288.05 -1351.099)"/><path class="af" d="M2343.444,1385.035a1.686,1.686,0,0,1,.669-1.512,1.662,1.662,0,0,1,1.72.151l7.178,4.145a5.237,5.237,0,0,1,2.373,4.112l-.057,8.447c0,1.51-1.075,2.12-2.389,1.361l-7.179-4.145a5.236,5.236,0,0,1-2.373-4.112Z" transform="translate(-2312.594 -1365.344)"/><path class="af" d="M2383.821,1408.472a1.685,1.685,0,0,1,.669-1.512,1.664,1.664,0,0,1,1.72.151l7.178,4.146a5.234,5.234,0,0,1,2.374,4.111l-.056,8.448c0,1.51-1.076,2.12-2.389,1.362l-7.178-4.146a5.233,5.233,0,0,1-2.374-4.112Z" transform="translate(-2337.138 -1379.591)"/><path class="af" d="M2424.2,1430.945a1.686,1.686,0,0,1,.669-1.512,1.665,1.665,0,0,1,1.72.151l7.177,4.145a5.234,5.234,0,0,1,2.374,4.111l-.056,8.448c0,1.51-1.075,2.12-2.389,1.361l-7.178-4.145a5.234,5.234,0,0,1-2.374-4.111Z" transform="translate(-2361.683 -1393.253)"/><path class="af" d="M2464.574,1454.382a1.686,1.686,0,0,1,.67-1.513,1.662,1.662,0,0,1,1.719.151l7.178,4.145a5.234,5.234,0,0,1,2.374,4.111l-.057,8.447c0,1.51-1.075,2.12-2.389,1.361l-7.178-4.146a5.232,5.232,0,0,1-2.374-4.111Z" transform="translate(-2386.227 -1407.5)"/><path class="af" d="M2504.951,1477.818a1.689,1.689,0,0,1,.67-1.512,1.665,1.665,0,0,1,1.72.151l7.178,4.146a5.235,5.235,0,0,1,2.374,4.111l-.056,8.448c0,1.51-1.075,2.12-2.39,1.361l-7.178-4.146a5.233,5.233,0,0,1-2.374-4.111Z" transform="translate(-2410.771 -1421.746)"/><g transform="translate(0 18.446)"><path class="af" d="M2264.913,1386.165a1.684,1.684,0,0,1,.67-1.512,1.661,1.661,0,0,1,1.719.15l7.179,4.146a5.236,5.236,0,0,1,2.373,4.111l-.056,8.448c0,1.51-1.076,2.12-2.39,1.361l-7.177-4.145a5.233,5.233,0,0,1-2.374-4.111Z" transform="translate(-2264.857 -1384.478)"/><path class="af" d="M2303.068,1408.639a1.682,1.682,0,0,1,.669-1.512,1.665,1.665,0,0,1,1.72.15l7.178,4.146a5.239,5.239,0,0,1,2.374,4.112l-.057,8.447c0,1.51-1.075,2.12-2.388,1.362l-7.178-4.146a5.233,5.233,0,0,1-2.374-4.111Z" transform="translate(-2288.05 -1398.139)"/><path class="af" d="M2343.444,1432.076a1.686,1.686,0,0,1,.669-1.512,1.665,1.665,0,0,1,1.72.151l7.178,4.145a5.239,5.239,0,0,1,2.373,4.112l-.057,8.447c0,1.511-1.075,2.121-2.389,1.362l-7.179-4.145a5.236,5.236,0,0,1-2.373-4.111Z" transform="translate(-2312.594 -1412.386)"/><path class="af" d="M2383.821,1455.512a1.684,1.684,0,0,1,.669-1.512,1.663,1.663,0,0,1,1.72.15l7.178,4.146a5.233,5.233,0,0,1,2.374,4.111l-.056,8.447c0,1.51-1.076,2.12-2.389,1.361l-7.178-4.145a5.233,5.233,0,0,1-2.374-4.112Z" transform="translate(-2337.138 -1426.632)"/><path class="af" d="M2424.2,1477.985a1.684,1.684,0,0,1,.669-1.511,1.663,1.663,0,0,1,1.72.15l7.177,4.145a5.235,5.235,0,0,1,2.374,4.112l-.056,8.447c0,1.51-1.075,2.121-2.389,1.362l-7.178-4.146a5.232,5.232,0,0,1-2.374-4.111Z" transform="translate(-2361.683 -1440.293)"/><path class="af" d="M2464.574,1501.422a1.686,1.686,0,0,1,.67-1.512,1.662,1.662,0,0,1,1.719.151l7.178,4.145a5.235,5.235,0,0,1,2.374,4.111l-.057,8.447c0,1.51-1.075,2.121-2.389,1.362l-7.178-4.145a5.233,5.233,0,0,1-2.374-4.112Z" transform="translate(-2386.227 -1454.54)"/><path class="af" d="M2504.951,1524.859a1.686,1.686,0,0,1,.67-1.512,1.663,1.663,0,0,1,1.72.15l7.178,4.146a5.237,5.237,0,0,1,2.374,4.112l-.056,8.447c0,1.51-1.075,2.121-2.39,1.362l-7.178-4.146a5.232,5.232,0,0,1-2.374-4.111Z" transform="translate(-2410.771 -1468.787)"/></g><g transform="translate(0 36.429)"><path class="af" d="M2264.913,1432.027a1.685,1.685,0,0,1,.67-1.512,1.663,1.663,0,0,1,1.719.151l7.179,4.145a5.237,5.237,0,0,1,2.373,4.112l-.056,8.447c0,1.51-1.076,2.12-2.39,1.362l-7.177-4.145a5.233,5.233,0,0,1-2.374-4.111Z" transform="translate(-2264.857 -1430.339)"/><path class="af" d="M2303.068,1454.5a1.682,1.682,0,0,1,.669-1.512,1.664,1.664,0,0,1,1.72.151l7.178,4.145a5.238,5.238,0,0,1,2.374,4.111l-.057,8.447c0,1.51-1.075,2.121-2.388,1.361l-7.178-4.145a5.236,5.236,0,0,1-2.374-4.112Z" transform="translate(-2288.05 -1444)"/><path class="af" d="M2343.444,1477.937a1.686,1.686,0,0,1,.669-1.512,1.663,1.663,0,0,1,1.72.15l7.178,4.145a5.238,5.238,0,0,1,2.373,4.111l-.057,8.448c0,1.51-1.075,2.12-2.389,1.362l-7.179-4.146a5.233,5.233,0,0,1-2.373-4.111Z" transform="translate(-2312.594 -1458.247)"/><path class="af" d="M2383.821,1501.374a1.684,1.684,0,0,1,.669-1.512,1.665,1.665,0,0,1,1.72.151l7.178,4.145a5.235,5.235,0,0,1,2.374,4.111l-.056,8.447c0,1.51-1.076,2.121-2.389,1.362l-7.178-4.145a5.234,5.234,0,0,1-2.374-4.112Z" transform="translate(-2337.138 -1472.494)"/><path class="af" d="M2424.2,1523.847a1.685,1.685,0,0,1,.669-1.512,1.664,1.664,0,0,1,1.72.151l7.177,4.145a5.235,5.235,0,0,1,2.374,4.111l-.056,8.448c0,1.51-1.075,2.121-2.389,1.362l-7.178-4.145a5.233,5.233,0,0,1-2.374-4.111Z" transform="translate(-2361.683 -1486.155)"/><path class="af" d="M2464.574,1547.283a1.685,1.685,0,0,1,.67-1.512,1.661,1.661,0,0,1,1.719.15l7.178,4.145a5.236,5.236,0,0,1,2.374,4.111l-.057,8.448c0,1.51-1.075,2.12-2.389,1.362l-7.178-4.146a5.231,5.231,0,0,1-2.374-4.111Z" transform="translate(-2386.227 -1500.401)"/><path class="af" d="M2504.951,1570.72a1.686,1.686,0,0,1,.67-1.512,1.662,1.662,0,0,1,1.72.15l7.178,4.145a5.236,5.236,0,0,1,2.374,4.111l-.056,8.447c0,1.51-1.075,2.12-2.39,1.361l-7.178-4.145a5.235,5.235,0,0,1-2.374-4.112Z" transform="translate(-2410.771 -1514.648)"/></g><g transform="translate(0 54.874)"><path class="af" d="M2264.913,1479.067a1.686,1.686,0,0,1,.67-1.512,1.663,1.663,0,0,1,1.719.151l7.179,4.145a5.237,5.237,0,0,1,2.373,4.111l-.056,8.448c0,1.51-1.076,2.12-2.39,1.361l-7.177-4.146a5.232,5.232,0,0,1-2.374-4.111Z" transform="translate(-2264.857 -1477.379)"/><path class="af" d="M2303.068,1501.541a1.683,1.683,0,0,1,.669-1.512,1.663,1.663,0,0,1,1.72.151l7.178,4.145a5.24,5.24,0,0,1,2.374,4.112l-.057,8.448c0,1.51-1.075,2.12-2.388,1.361l-7.178-4.146a5.235,5.235,0,0,1-2.374-4.111Z" transform="translate(-2288.05 -1491.041)"/><path class="af" d="M2343.444,1524.977a1.686,1.686,0,0,1,.669-1.512,1.662,1.662,0,0,1,1.72.151l7.178,4.145a5.236,5.236,0,0,1,2.373,4.111l-.057,8.447c0,1.51-1.075,2.121-2.389,1.362l-7.179-4.145a5.234,5.234,0,0,1-2.373-4.111Z" transform="translate(-2312.594 -1505.287)"/><path class="af" d="M2383.821,1548.414a1.685,1.685,0,0,1,.669-1.512,1.663,1.663,0,0,1,1.72.151l7.178,4.145a5.235,5.235,0,0,1,2.374,4.111l-.056,8.448c0,1.51-1.076,2.12-2.389,1.362l-7.178-4.146a5.234,5.234,0,0,1-2.374-4.112Z" transform="translate(-2337.138 -1519.534)"/><path class="af" d="M2424.2,1570.888a1.685,1.685,0,0,1,.669-1.513,1.665,1.665,0,0,1,1.72.151l7.177,4.145a5.236,5.236,0,0,1,2.374,4.112l-.056,8.447c0,1.51-1.075,2.12-2.389,1.362l-7.178-4.145a5.234,5.234,0,0,1-2.374-4.112Z" transform="translate(-2361.683 -1533.195)"/><path class="af" d="M2464.574,1594.324a1.685,1.685,0,0,1,.67-1.512,1.662,1.662,0,0,1,1.719.151l7.178,4.145a5.236,5.236,0,0,1,2.374,4.112l-.057,8.447c0,1.51-1.075,2.12-2.389,1.362l-7.178-4.146a5.232,5.232,0,0,1-2.374-4.111Z" transform="translate(-2386.227 -1547.442)"/><path class="af" d="M2504.951,1617.761a1.688,1.688,0,0,1,.67-1.513,1.664,1.664,0,0,1,1.72.151l7.178,4.145a5.237,5.237,0,0,1,2.374,4.112l-.056,8.447c0,1.51-1.075,2.12-2.39,1.362l-7.178-4.146a5.234,5.234,0,0,1-2.374-4.112Z" transform="translate(-2410.771 -1561.689)"/></g></g><g transform="translate(9.6 60.104)"><g transform="translate(18.027 10.998)"><path class="ag" d="M2080.112,811.9l-.021,6.855c-5.11-2.951-9.274-.583-9.29,5.3s4.119,13.037,9.23,15.989c5.127,2.96,9.287.59,9.3-5.288,0-.263-.01-.538-.026-.815l5.955,2.92c.023.441.034.9.033,1.337-.027,9.664-6.874,13.552-15.284,8.7s-15.2-16.615-15.173-26.28S2071.7,807.044,2080.112,811.9Z" transform="translate(-2064.84 -809.811)"/><path class="ah" d="M2100.461,852.576a4.431,4.431,0,0,1,.6,2.181,1.646,1.646,0,0,1-.672,1.527,1.6,1.6,0,0,1-1.637-.159,4.475,4.475,0,0,1-1.5-1.441,5.1,5.1,0,0,1-.805-2.009l1.353.782a2.98,2.98,0,0,0,.408.785,1.985,1.985,0,0,0,.568.5.684.684,0,0,0,.72.064.765.765,0,0,0,.3-.716,2.1,2.1,0,0,0-.283-1.053,1.823,1.823,0,0,0-.666-.728.858.858,0,0,0-.413-.116.9.9,0,0,0-.4.135l-1.042-.865.826-3.838,3.153,1.82,0,1.363-2.187-1.263-.291,1.254a1.471,1.471,0,0,1,.233.078,1.445,1.445,0,0,1,.209.106,4.164,4.164,0,0,1,1.527,1.592Zm-6.177-4a.665.665,0,0,0,.243-.6,1.7,1.7,0,0,0-.255-.906,1.614,1.614,0,0,0-.588-.65.6.6,0,0,0-.611-.056.642.642,0,0,0-.259.608,1.775,1.775,0,0,0,.243.893,1.752,1.752,0,0,0,.633.662.554.554,0,0,0,.594.046Zm-.612-3.54a4.137,4.137,0,0,1,1.518,1.607,4.184,4.184,0,0,1,.6,2.017,2.781,2.781,0,0,1-.092.676,5.626,5.626,0,0,1-.441.856l-1.748,2.906-1.094-1.272,1.193-1.952a4.063,4.063,0,0,1-1.466-1.543,4.2,4.2,0,0,1-.588-2.1,1.429,1.429,0,0,1,.623-1.363A1.447,1.447,0,0,1,2093.673,845.037Z" transform="translate(-2081.08 -831.037)"/><path class="ah" d="M2103.757,815.137c8.033,4.639,14.6,15.571,15.151,24.965l-5.955-2.92c-.344-5.729-4.322-12.364-9.217-15.19Z" transform="translate(-2088.484 -813.049)"/></g><path class="ai" d="M2037.377,848.752a3.469,3.469,0,0,0,.315-1.8,6,6,0,0,0-.27-2.095,1.825,1.825,0,0,0-.71-.944.616.616,0,0,0-.532-.09c-.155.062-.276.252-.361.56a6.466,6.466,0,0,0-.121,1.5,5.553,5.553,0,0,0,.278,2.033,1.821,1.821,0,0,0,.722.933.461.461,0,0,0,.68-.1Zm-4.995-3.4-.7.44,2.219,1.281,0,1.256-4.307-2.486v-.654l1.928-1.142a2.7,2.7,0,0,0,.931-.76,1.386,1.386,0,0,0,.239-.764,1.611,1.611,0,0,0-.246-.823,1.63,1.63,0,0,0-.606-.61.576.576,0,0,0-.642-.045.889.889,0,0,0-.277.729l-1.149-.663c.036-.755.252-1.247.646-1.458a1.516,1.516,0,0,1,1.5.2,3.7,3.7,0,0,1,.994.847,4.477,4.477,0,0,1,.7,1.193,3.565,3.565,0,0,1,.257,1.215,2.283,2.283,0,0,1-.324,1.179,3.245,3.245,0,0,1-1.154,1.068Zm6.216-.084a8.854,8.854,0,0,1,.268,2.354,5.726,5.726,0,0,1-.281,2.063,1.118,1.118,0,0,1-.737.736,1.689,1.689,0,0,1-1.166-.3,3.813,3.813,0,0,1-1.175-1.047,4.939,4.939,0,0,1-.743-1.578,8.4,8.4,0,0,1-.265-2.322,4.108,4.108,0,0,1,.539-2.546c.394-.414.941-.424,1.643-.019a3.851,3.851,0,0,1,1.163,1.053A4.994,4.994,0,0,1,2038.6,845.263Z" transform="translate(-2025.384 -816.875)"/><path class="aj" d="M2029.914,800.066l0-1.269,4.081,2.357,0,.705-2.83,4.981-.982-1.113,2.341-4.153-2.612-1.508Zm8.206,6.619a4.056,4.056,0,0,1,.557,2.018,1.3,1.3,0,0,1-2.132,1.241,4.016,4.016,0,0,1-1.363-1.307,4.754,4.754,0,0,1-.746-1.866l1.248.72a2.2,2.2,0,0,0,.379.726,1.66,1.66,0,0,0,.508.471.61.61,0,0,0,.665.054c.192-.105.277-.33.278-.672a2,2,0,0,0-.246-.95,1.721,1.721,0,0,0-.618-.668.762.762,0,0,0-.381-.111.691.691,0,0,0-.381.123l-.96-.814.772-3.514,2.906,1.677,0,1.239-2.027-1.171-.253,1.181a.889.889,0,0,1,.2.059,1.591,1.591,0,0,1,.2.1A3.824,3.824,0,0,1,2038.119,806.685Z" transform="translate(-2025.582 -792.118)"/><path class="ai" d="M2039.092,829.848a.88.88,0,0,1,.4.7l0,.87c0,.26-.178.362-.405.231l-12.5-7.162a.88.88,0,0,1-.4-.7l0-.871c0-.26.183-.363.405-.235Z" transform="translate(-2023.314 -806.606)"/><path class="aj" d="M2039.177,793.4a.9.9,0,0,1,.4.709l0,.861c0,.26-.178.374-.4.244l-12.5-7.162a.9.9,0,0,1-.4-.708l0-.862c0-.255.183-.372.4-.244Z" transform="translate(-2023.366 -784.448)"/><path class="aj" d="M2020.19,781.918a2.558,2.558,0,0,1,1.169,1.995c0,.744-.53,1.044-1.177.671a2.557,2.557,0,0,1-1.142-2.01C2019.042,781.851,2019.562,781.556,2020.19,781.918Z" transform="translate(-2018.972 -781.763)"/><path class="ai" d="M2020.05,818.236a2.65,2.65,0,0,1,1.2,2.075c0,.765-.545,1.051-1.211.667a2.6,2.6,0,0,1-1.176-2.046C2018.869,818.176,2019.4,817.863,2020.05,818.236Z" transform="translate(-2018.866 -803.839)"/></g><g transform="translate(5.276 10.964)"><path class="w" d="M2008,661.091c.011-4.155,2.955-5.837,6.575-3.747q40.9,23.458,81.818,46.872a14.412,14.412,0,0,1,6.532,11.315l-.156,4c-.012,4.156-2.959,5.835-6.576,3.747q-40.893-23.455-81.817-46.872a14.4,14.4,0,0,1-6.533-11.315Z" transform="translate(-2007.84 -656.446)"/><path class="c" d="M2184.37,768.277a3.685,3.685,0,0,1,.441-1.833,2.317,2.317,0,0,1,2.072-1.19,3.738,3.738,0,0,1,1.844.554l6.268,3.574a7.611,7.611,0,0,1,2.607,2.7,8.025,8.025,0,0,1,1.119,3.272l.168.1a3.185,3.185,0,0,1,1.106,1.157,3.148,3.148,0,0,1,.445,1.532l-.029.792a1.719,1.719,0,0,1-.21.838,1.236,1.236,0,0,1-.455.46,1.215,1.215,0,0,1-.624.162,1.729,1.729,0,0,1-.853-.249l-.175-.1a2.268,2.268,0,0,1-1.268.905,2.977,2.977,0,0,1-1.891-.158,4.733,4.733,0,0,1-.625-.3l-6.272-3.576a8.206,8.206,0,0,1-3.749-6.5l.083-2.136Zm1.454-1.247a2.542,2.542,0,0,0-.286,1.267l-.083,2.136a7.051,7.051,0,0,0,3.167,5.463l6.265,3.574a3.613,3.613,0,0,0,.473.229,1.843,1.843,0,0,0,1.153.121,1.156,1.156,0,0,0,.7-.561,1.765,1.765,0,0,0,.11-.233l.248-.629c.267.152,1.113.585,1.28.731a.6.6,0,0,0,.274.1.091.091,0,0,0,.042-.008.062.062,0,0,0,.024-.027.565.565,0,0,0,.055-.277l.03-.789a2.21,2.21,0,0,0-.969-1.659l-.719-.409-.01-.328a6.622,6.622,0,0,0-.979-3.046,6.445,6.445,0,0,0-2.186-2.286l-6.268-3.574a2.59,2.59,0,0,0-1.257-.4,1.145,1.145,0,0,0-1.06.609Z" transform="translate(-2115.099 -722.588)"/></g><g transform="translate(8.002 37.398)"><path class="i" d="M2023.093,741.766c-4.238-2.345-7.942-8.028-8.278-12.7s2.825-6.549,7.063-4.2,7.943,8.03,8.278,12.7S2027.328,744.11,2023.093,741.766Z" transform="translate(-2014.791 -723.859)"/><g transform="translate(19.449 7.765)"><path class="i" d="M2064.438,756.981l-.008,2.872,32.693,18.877.008-2.875Z" transform="translate(-2064.415 -751.758)"/><path class="i" d="M2064.391,772.872l11.565,6.675.008-2.871L2064.4,770Z" transform="translate(-2064.391 -759.673)"/><path class="i" d="M2086.392,756.314l-21.914-12.654-.008,2.87,21.915,12.654Z" transform="translate(-2064.439 -743.661)"/></g></g><g transform="translate(4.267 92.394)"><path class="w" d="M2005.385,867.61c.009-3.13,2.225-4.4,4.95-2.822q43.422,24.905,86.818,49.839a10.85,10.85,0,0,1,4.919,8.521l-.118,3.009c-.009,3.13-2.228,4.394-4.951,2.822q-43.421-24.905-86.817-49.839a10.841,10.841,0,0,1-4.919-8.52Z" transform="translate(-2005.267 -864.112)"/><path class="z" d="M2011.493,878.262c0-1.154.82-1.621,1.825-1.041,10.675,6.123,76.428,44.08,87.1,50.2a4,4,0,0,1,1.813,3.142l-.043,1.11c0,1.154-.821,1.62-1.826,1.04-10.675-6.123-76.428-44.078-87.1-50.2a4,4,0,0,1-1.813-3.142Z" transform="translate(-2009.026 -871.929)"/><path class="c" d="M2011.493,878.262c0-1.154.82-1.621,1.825-1.041,10.675,6.123,43.264,24.88,53.937,31a4,4,0,0,1,1.814,3.142l-.042,1.11c0,1.154-.822,1.621-1.826,1.04-10.675-6.123-43.264-24.878-53.937-31a4,4,0,0,1-1.814-3.142Z" transform="translate(-2009.026 -871.929)"/></g><path class="ak" d="M2031.474,1299.844a23.8,23.8,0,0,0,3.415,1.33.977.977,0,0,0,.544-1.876,22.211,22.211,0,0,1-3.187-1.25c-1.093-.091-1.441,1.047-.772,1.8Zm-3.02-3.527c-.913-.533-1.789-1.1-2.653-1.724a.976.976,0,1,0-1.138,1.586c.925.665,1.878,1.289,2.863,1.86,1.06.144,1.506-.789.928-1.721Zm11.518,3.231a.977.977,0,0,0,.2,1.942,10.1,10.1,0,0,0,4.114-1.431.977.977,0,0,0-.982-1.686,8.245,8.245,0,0,1-3.329,1.176Zm6.534-5.148a.978.978,0,0,0,1.656.992,1.048,1.048,0,0,0,.154-.257,15.56,15.56,0,0,0,1.032-4.024.977.977,0,0,0-1.936-.256,13.737,13.737,0,0,1-.905,3.545Zm.838-9.12a.977.977,0,0,0,1.944-.146,26.8,26.8,0,0,0-.762-4.053.976.976,0,0,0-1.9.466,29.586,29.586,0,0,1,.714,3.733Zm-2.51-9.141a.977.977,0,0,0,1.837-.653,33.831,33.831,0,0,0-1.7-3.712.976.976,0,0,0-1.76.844c.571,1.183,1.116,2.3,1.619,3.522Zm-4.49-8.442a.977.977,0,0,0,1.7-.942,1.073,1.073,0,0,0-.076-.135c-.717-1.1-1.5-2.2-2.309-3.237a.977.977,0,0,0-1.544,1.2c.777,1,1.532,2.057,2.226,3.118Zm-5.987-7.458a.977.977,0,0,0,1.554-1.152,1.2,1.2,0,0,0-.158-.211c-.906-.951-1.916-1.874-2.909-2.733a.977.977,0,0,0-1.269,1.484,37.661,37.661,0,0,1,2.782,2.612Zm-7.374-5.979a.977.977,0,0,0,1.02-1.666,36.9,36.9,0,0,0-3.584-1.875.976.976,0,0,0-.773,1.794,27.938,27.938,0,0,1,3.337,1.747Zm-8.663-3.179a.977.977,0,0,0,.177-1.945,12.2,12.2,0,0,0-4.23.344.977.977,0,0,0,.421,1.9,10.92,10.92,0,0,1,3.632-.3Zm-7.751,3.163a.977.977,0,0,0-1.426-1.316,1.068,1.068,0,0,0-.146.159,12.282,12.282,0,0,0-1.854,3.8.977.977,0,0,0,1.875.548,10.253,10.253,0,0,1,1.551-3.188Zm-2.177,8.678a.977.977,0,0,0-1.952.062,26.824,26.824,0,0,0,.418,4.019.976.976,0,0,0,1.923-.337,24.222,24.222,0,0,1-.389-3.743Zm1.82,9.257a.977.977,0,0,0-1.877.525,28.637,28.637,0,0,0,1.494,3.826.976.976,0,0,0,1.806-.739c-.5-1.22-.993-2.357-1.422-3.612Zm4.035,8.655a.976.976,0,1,0-1.679,1c.665,1.133,1.4,2.272,2.151,3.347a.977.977,0,0,0,1.662-1.02c-.69-1.12-1.456-2.168-2.134-3.323Zm5.611,7.748a.977.977,0,0,0-1.531,1.209,34.29,34.29,0,0,0,2.813,2.966.976.976,0,1,0,1.356-1.4C2021.579,1290.462,2020.7,1289.543,2019.857,1288.582Z" transform="translate(-2001.712 -1005.737)"/><path class="al" d="M2158.763,811.808a9.3,9.3,0,0,1,.712-3.738,5.518,5.518,0,0,1,2.13-2.526,5.434,5.434,0,0,1,3.377-.74,9.279,9.279,0,0,1,3.789,1.3l13.754,8.232a20.343,20.343,0,0,1,9.257,16.036l-.212,31.726a8.734,8.734,0,0,1-1.028,4.36,5.151,5.151,0,0,1-4.642,2.666,8.83,8.83,0,0,1-4.339-1.317l-13.761-8.237a20.339,20.339,0,0,1-9.25-16.032l.213-31.726Zm1.979-3.18a7.929,7.929,0,0,0-.6,3.183l-.214,31.724a18.989,18.989,0,0,0,8.568,14.839l13.755,8.232a7.472,7.472,0,0,0,3.646,1.133,3.974,3.974,0,0,0,2.006-.5,3.925,3.925,0,0,0,1.439-1.475,7.358,7.358,0,0,0,.845-3.669l.212-31.725a18.982,18.982,0,0,0-8.569-14.839l-13.754-8.232a7.905,7.905,0,0,0-3.216-1.111,4.075,4.075,0,0,0-2.533.535A4.162,4.162,0,0,0,2160.742,808.628Z" transform="translate(-2094.178 -735.65)"/><path class="am" d="M2073.534,996.235a93.737,93.737,0,0,0-10.323-10.1c-10.6-8.757-27.511-17.464-40.737-9.868-9.823,5.641-12.822,17.763-12.851,28.343-.037,13.151,5.456,29.241,13.815,43.715,8.386,14.52,19.631,27.373,31.045,33.962,13.381,7.725,30.649,10.1,39.463-5.168,5-8.663,5.313-20.092,3.885-29.893l2.107-.3c1.5,10.284,1.1,22.167-4.152,31.26-9.433,16.343-27.906,14.285-42.36,5.941-11.75-6.783-23.273-19.925-31.827-34.736-8.531-14.771-14.137-31.247-14.1-44.781.033-11.4,3.381-24.134,13.918-30.183,14.1-8.1,31.818.705,43.152,10.068a94.983,94.983,0,0,1,10.564,10.343l-1.6,1.4Zm7.029-1.69-21.2,29.757,36.577-3.133a110.286,110.286,0,0,0-15.382-26.624Zm-23.767,30.3-1.119,1.571,42.8-3.665-.432-1.11a111.654,111.654,0,0,0-16.826-29.131l-.737-.918L2056.8,1024.84Zm38.963,13.012,2.048-.566-.6-2.115-2.041.591.6,2.09Zm-1.393-5.1,2.023-.657c-.34-1.037-.7-2.072-1.076-3.1l-2,.725c.367,1.006.718,2.011,1.051,3.029Zm-2.407-6.532,1.973-.8c-.114-.28-.214-.558-.376-.906l-2.161.259Z" transform="translate(-2002.356 -836.837)"/><g transform="translate(51.527 258.373)"><path class="an" d="M2126.042,1294.855c.019-6.67,4.743-9.369,10.552-6.014l27.837,15.954c5.8,3.351,10.5,11.489,10.484,18.159l-.25,33.475c-.019,6.669-4.749,9.364-10.553,6.014l-27.836-15.954c-5.81-3.354-10.5-11.489-10.484-18.158Z" transform="translate(-2125.791 -1287.4)"/><path class="c" d="M2159.028,1355.528c-4.868-2.694-9.124-9.221-9.51-14.583s3.247-7.523,8.115-4.829,9.124,9.224,9.509,14.583-3.249,7.522-8.114,4.829Zm18.064-2.1-3.165-1.752a33.72,33.72,0,0,0-3.3-8.9l2.063-1.225a49.572,49.572,0,0,0-4.012-6.153l-2.063,1.228a35.448,35.448,0,0,0-6.907-6.755l-.25-3.49a30.69,30.69,0,0,0-2.642-1.651,24.887,24.887,0,0,0-2.616-1.259l.251,3.49a10.916,10.916,0,0,0-6.467-.647l-2.418-3.709a8.04,8.04,0,0,0-3.424,2.038l2.418,3.705a9.761,9.761,0,0,0-2.243,5.834l-3.165-1.751a21.572,21.572,0,0,0,.026,2.793,27.493,27.493,0,0,0,.39,3l3.165,1.752a33.64,33.64,0,0,0,3.3,8.9l-2.064,1.228a49.681,49.681,0,0,0,4.012,6.153l2.063-1.228a35.431,35.431,0,0,0,6.906,6.755l.251,3.486a30.021,30.021,0,0,0,2.644,1.656,24.054,24.054,0,0,0,2.613,1.254l-.251-3.486a10.922,10.922,0,0,0,6.467.646l2.419,3.708a8.038,8.038,0,0,0,3.423-2.038l-2.418-3.708a9.743,9.743,0,0,0,2.243-5.831l3.166,1.752a21.806,21.806,0,0,0-.027-2.8A27.254,27.254,0,0,0,2177.092,1353.427Z" transform="translate(-2133.892 -1308.799)"/></g></g></g></g><g transform="translate(63.134 6.983)"><circle class="ao" cx="30.316" cy="30.316" r="30.316" transform="translate(0 526.287) rotate(-45)"/><path class="ap" d="M1952.845,319.449a16.215,16.215,0,1,1-16.216,16.215A16.215,16.215,0,0,1,1952.845,319.449Z" transform="translate(-1740.417 -319.449)"/></g></g></g></svg>