<svg xmlns="http://www.w3.org/2000/svg" width="110.648" height="49.854" viewBox="0 0 110.648 49.854">
  <g id="Untitled-1" transform="translate(-33.361 -122.506)">
    <path id="Path_6404" data-name="Path 6404" d="M698.289,203.253h.638l2.839,6.367h-.926l-.845-1.876h-2.7l-.792,1.876h-.928Zm1.332,3.682-1.021-2.3-.949,2.3Z" transform="translate(-622.674 -75.926)" fill="#fff"/>
    <path id="Path_6405" data-name="Path 6405" d="M786.3,203.619h5.3v.808H789.39v5.538h-.911v-5.538H786.3Z" transform="translate(-707.986 -76.27)" fill="#fff"/>
    <path id="Path_6406" data-name="Path 6406" d="M889.5,203.828h.911v6.332H889.5Z" transform="translate(-805.025 -76.467)" fill="#fff"/>
    <path id="Path_6407" data-name="Path 6407" d="M926.849,202.136a3.458,3.458,0,0,1,2.446.932,3.134,3.134,0,0,1,.971,2.339,3.034,3.034,0,0,1-.987,2.319,3.476,3.476,0,0,1-2.484.923,3.312,3.312,0,0,1-2.389-.923,3.081,3.081,0,0,1-.957-2.3,3.136,3.136,0,0,1,.974-2.357,3.36,3.36,0,0,1,2.425-.932Zm.031.868a2.485,2.485,0,0,0-1.787.682,2.328,2.328,0,0,0-.7,1.738,2.271,2.271,0,0,0,.7,1.7,2.607,2.607,0,0,0,3.528-.01,2.312,2.312,0,0,0,.708-1.727,2.259,2.259,0,0,0-.708-1.692A2.422,2.422,0,0,0,926.88,203Z" transform="translate(-836.947 -74.875)" fill="#fff"/>
    <path id="Path_6408" data-name="Path 6408" d="M1061.78,203.828h.87v6.332h-.787l-4.237-4.884v4.884h-.854v-6.332h.734l4.271,4.914Z" transform="translate(-962.308 -76.467)" fill="#fff"/>
    <path id="Path_6409" data-name="Path 6409" d="M1168.917,203.253h.629l2.842,6.367h-.92l-.846-1.876h-2.707l-.787,1.876h-.928Zm1.338,3.689-1.032-2.308-.944,2.308Z" transform="translate(-1065.205 -75.926)" fill="#fff"/>
    <path id="Path_6410" data-name="Path 6410" d="M1281.5,203.828h.918v5.51h2.846v.821H1281.5Z" transform="translate(-1173.619 -76.467)" fill="#fff"/>
    <path id="Path_6411" data-name="Path 6411" d="M1402.668,207.444v1a4.776,4.776,0,0,1-2.308.545,3.538,3.538,0,0,1-1.8-.433,3.1,3.1,0,0,1-1.17-1.176,3.19,3.19,0,0,1-.43-1.615,3.116,3.116,0,0,1,.98-2.333,3.451,3.451,0,0,1,2.439-.933,5.636,5.636,0,0,1,2.216.516v.977a4.353,4.353,0,0,0-2.175-.629,2.526,2.526,0,0,0-1.8.679,2.307,2.307,0,0,0-.72,1.726,2.258,2.258,0,0,0,.71,1.718,2.556,2.556,0,0,0,1.8.663A4.09,4.09,0,0,0,1402.668,207.444Z" transform="translate(-1282.192 -75.22)" fill="#fff"/>
    <path id="Path_6412" data-name="Path 6412" d="M1511.2,203.828h3.594v.8h-2.686v1.933h2.593v.818h-2.593v1.968h2.765v.807H1511.2Z" transform="translate(-1389.606 -76.467)" fill="#fff"/>
    <path id="Path_6413" data-name="Path 6413" d="M1594.491,203.828h.859v6.332h-.776l-4.24-4.884v4.884h-.849v-6.332h.731l4.276,4.914Z" transform="translate(-1463.215 -76.467)" fill="#fff"/>
    <path id="Path_6414" data-name="Path 6414" d="M1701.46,203.619h5.285v.808h-2.208v5.538h-.912v-5.538h-2.166Z" transform="translate(-1568.505 -76.27)" fill="#fff"/>
    <path id="Path_6415" data-name="Path 6415" d="M1804.83,210.157v-6.332h1.582a2.314,2.314,0,0,1,1.535.477,1.6,1.6,0,0,1,.57,1.282,1.7,1.7,0,0,1-.281.959,1.674,1.674,0,0,1-.8.605,2.665,2.665,0,0,1,.6.542,10.291,10.291,0,0,1,.813,1.206c.222.355.4.629.535.8l.331.458h-1.078l-.278-.412a.726.726,0,0,0-.052-.081l-.181-.256-.277-.462-.306-.492a4.8,4.8,0,0,0-.511-.616,1.823,1.823,0,0,0-.42-.339,1.584,1.584,0,0,0-.634-.1h-.243v2.758Zm1.183-5.566h-.279v2h.353a2.751,2.751,0,0,0,.944-.109.927.927,0,0,0,.393-.367.937.937,0,0,0,.146-.534,1.018,1.018,0,0,0-.157-.549.87.87,0,0,0-.452-.339,3.278,3.278,0,0,0-.945-.1Z" transform="translate(-1665.705 -76.464)" fill="#fff"/>
    <path id="Path_6416" data-name="Path 6416" d="M585.982,366.263h3.375v.811h-2.471v1.77h2.471v.809h-2.471v2.954h-.9Z" transform="translate(-519.628 -229.203)" fill="#fff"/>
    <path id="Path_6417" data-name="Path 6417" d="M657.425,364.937a3.38,3.38,0,0,1,2.446.929,3.052,3.052,0,0,1,.973,2.327,3,3,0,0,1-.984,2.317,3.474,3.474,0,0,1-2.476.92,3.283,3.283,0,0,1-2.388-.92,3.047,3.047,0,0,1-.96-2.3,3.1,3.1,0,0,1,.965-2.349A3.313,3.313,0,0,1,657.425,364.937Zm.041.855a2.461,2.461,0,0,0-1.8.682,2.324,2.324,0,0,0-.7,1.74,2.278,2.278,0,0,0,.706,1.7,2.612,2.612,0,0,0,3.526-.016,2.313,2.313,0,0,0,.712-1.728,2.251,2.251,0,0,0-.712-1.691,2.364,2.364,0,0,0-1.736-.688Z" transform="translate(-583.621 -227.956)" fill="#fff"/>
    <path id="Path_6418" data-name="Path 6418" d="M787.3,372.6V366.26h1.583a2.281,2.281,0,0,1,1.531.483,1.754,1.754,0,0,1,.283,2.242,1.669,1.669,0,0,1-.791.614,2.579,2.579,0,0,1,.593.536,11.1,11.1,0,0,1,.822,1.2c.221.367.394.636.531.819l.33.451H791.1l-.278-.42a.405.405,0,0,0-.057-.076l-.177-.25-.274-.461-.306-.491a5.2,5.2,0,0,0-.511-.624,1.9,1.9,0,0,0-.427-.331,1.353,1.353,0,0,0-.629-.1h-.239V372.6Zm1.18-5.567H788.2v2h.345a2.557,2.557,0,0,0,.951-.12.889.889,0,0,0,.393-.349,1.071,1.071,0,0,0,.144-.548.948.948,0,0,0-.157-.542.833.833,0,0,0-.453-.346,3.054,3.054,0,0,0-.944-.1Z" transform="translate(-708.929 -229.2)" fill="#fff"/>
    <path id="Path_6419" data-name="Path 6419" d="M920.66,368.707l-.69-.42a3.277,3.277,0,0,1-.926-.78,1.475,1.475,0,0,1-.27-.885,1.568,1.568,0,0,1,.513-1.211,1.949,1.949,0,0,1,1.349-.472,2.558,2.558,0,0,1,1.458.452v1.026a2.092,2.092,0,0,0-1.481-.661,1.18,1.18,0,0,0-.724.21.63.63,0,0,0-.285.531.869.869,0,0,0,.21.538,2.569,2.569,0,0,0,.677.508l.7.42a2.017,2.017,0,0,1,1.164,1.763,1.626,1.626,0,0,1-.517,1.237,1.868,1.868,0,0,1-1.324.472,2.756,2.756,0,0,1-1.709-.582V369.7a2.111,2.111,0,0,0,1.7.931,1.049,1.049,0,0,0,.71-.235.745.745,0,0,0,.287-.6C921.495,369.419,921.21,369.05,920.66,368.707Z" transform="translate(-832.551 -227.957)" fill="#fff"/>
    <path id="Path_6420" data-name="Path 6420" d="M986.246,366.263h5.3v.8h-2.212v5.541h-.914v-5.541h-2.169Z" transform="translate(-895.994 -229.203)" fill="#fff"/>
    <path id="Path_6421" data-name="Path 6421" d="M1064.726,365.742h.64l2.84,6.375h-.932l-.842-1.884h-2.7l-.8,1.884h-.928Zm1.338,3.686-1.029-2.295-.939,2.295Z" transform="translate(-967.232 -228.714)" fill="#fff"/>
    <path id="Path_6422" data-name="Path 6422" d="M1152.82,366.263h5.292v.8h-2.21v5.541h-.907v-5.541h-2.174Z" transform="translate(-1052.622 -229.203)" fill="#fff"/>
    <path id="Path_6423" data-name="Path 6423" d="M1255.95,366.263h.91v6.343h-.91Z" transform="translate(-1149.597 -229.203)" fill="#fff"/>
    <path id="Path_6424" data-name="Path 6424" d="M1291.211,368.706l-.684-.42a3.151,3.151,0,0,1-.921-.78,1.486,1.486,0,0,1-.279-.885,1.535,1.535,0,0,1,.525-1.211,1.93,1.93,0,0,1,1.347-.472,2.551,2.551,0,0,1,1.456.452v1.026a2.107,2.107,0,0,0-1.472-.661,1.206,1.206,0,0,0-.737.21.655.655,0,0,0-.286.531.892.892,0,0,0,.213.538,2.622,2.622,0,0,0,.682.508l.692.42a2.026,2.026,0,0,1,1.159,1.763,1.626,1.626,0,0,1-.506,1.237,1.885,1.885,0,0,1-1.334.472,2.8,2.8,0,0,1-1.712-.582V369.7a2.135,2.135,0,0,0,1.7.931,1.049,1.049,0,0,0,.712-.236.757.757,0,0,0,.282-.6C1292.055,369.419,1291.772,369.05,1291.211,368.706Z" transform="translate(-1180.98 -227.957)" fill="#fff"/>
    <path id="Path_6425" data-name="Path 6425" d="M1356.87,366.263h5.294v.8h-2.2v5.541h-.912v-5.541h-2.179Z" transform="translate(-1244.491 -229.203)" fill="#fff"/>
    <path id="Path_6426" data-name="Path 6426" d="M1460.06,366.382h.914v6.336h-.914Z" transform="translate(-1341.517 -229.315)" fill="#fff"/>
    <path id="Path_6427" data-name="Path 6427" d="M1500.438,369.883v1a4.7,4.7,0,0,1-2.308.544,3.589,3.589,0,0,1-1.8-.424,3.15,3.15,0,0,1-1.17-1.179,3.182,3.182,0,0,1-.43-1.612,3.114,3.114,0,0,1,.983-2.336,3.412,3.412,0,0,1,2.433-.944,5.681,5.681,0,0,1,2.215.524v.975a4.317,4.317,0,0,0-2.169-.636,2.535,2.535,0,0,0-1.8.694,2.431,2.431,0,0,0-.021,3.429,2.529,2.529,0,0,0,1.815.673A4.067,4.067,0,0,0,1500.438,369.883Z" transform="translate(-1374.12 -227.957)" fill="#fff"/>
    <path id="Path_6428" data-name="Path 6428" d="M1605.584,368.707l-.686-.42a3.177,3.177,0,0,1-.919-.78,1.441,1.441,0,0,1-.276-.885,1.557,1.557,0,0,1,.513-1.211,1.944,1.944,0,0,1,1.349-.472,2.528,2.528,0,0,1,1.452.452v1.026a2.072,2.072,0,0,0-1.472-.661,1.175,1.175,0,0,0-.725.21.638.638,0,0,0-.292.524.872.872,0,0,0,.216.544,2.6,2.6,0,0,0,.677.508l.689.42a2.01,2.01,0,0,1,1.16,1.763,1.631,1.631,0,0,1-.507,1.237,1.878,1.878,0,0,1-1.326.472,2.746,2.746,0,0,1-1.71-.582V369.71a2.134,2.134,0,0,0,1.7.924,1.054,1.054,0,0,0,.714-.235.751.751,0,0,0,.282-.6C1606.423,369.419,1606.15,369.05,1605.584,368.707Z" transform="translate(-1476.585 -227.957)" fill="#fff"/>
    <path id="Path_6429" data-name="Path 6429" d="M582.855,537.244l-.741-.855c-.062.057-.171.146-.32.265l-.019.017a2.836,2.836,0,0,1-.791.46,2.638,2.638,0,0,1-.9.192,1.578,1.578,0,0,1-1.11-.432,1.413,1.413,0,0,1-.459-1.046,1.489,1.489,0,0,1,.225-.8,2.86,2.86,0,0,1,.734-.737l.021-.006a3.374,3.374,0,0,1,.511-.34,2.218,2.218,0,0,1-.718-1.468,1.383,1.383,0,0,1,.437-1.055,1.662,1.662,0,0,1,1.144-.4,1.644,1.644,0,0,1,1.133.39,1.286,1.286,0,0,1,.446,1.01,2.166,2.166,0,0,1-1.111,1.626l-.064.044.9,1.02a4.189,4.189,0,0,0,.677-1.03h.91a5.784,5.784,0,0,1-1.035,1.661l1.288,1.485Zm-1.511-1.3.21-.189-1.025-1.192-.4.282c-.472.315-.712.644-.712.975a.577.577,0,0,0,.241.452.812.812,0,0,0,.553.188,1.474,1.474,0,0,0,.577-.136,2.381,2.381,0,0,0,.559-.38Zm-.583-2.448.342-.245a.973.973,0,0,0,.488-.79.594.594,0,0,0-.2-.458.687.687,0,0,0-.511-.186.71.71,0,0,0-.495.168.532.532,0,0,0-.192.434,1.169,1.169,0,0,0,.154.542,1.807,1.807,0,0,0,.416.535Z" transform="translate(-512.605 -384.139)" fill="#fff"/>
    <path id="Path_6430" data-name="Path 6430" d="M726.441,528.987h.9v6.33h-.9Z" transform="translate(-651.701 -382.212)" fill="#fff"/>
    <path id="Path_6431" data-name="Path 6431" d="M770.551,528.987h.865v6.33h-.787l-4.236-4.878v4.878h-.852v-6.33h.734l4.274,4.918Z" transform="translate(-688.467 -382.212)" fill="#fff"/>
    <path id="Path_6432" data-name="Path 6432" d="M886.776,528.987h3.379v.8h-2.471v1.773h2.471v.807h-2.471v2.948h-.907Z" transform="translate(-802.463 -382.212)" fill="#fff"/>
    <path id="Path_6433" data-name="Path 6433" d="M958.28,527.485a3.409,3.409,0,0,1,2.448.929,3.071,3.071,0,0,1,.978,2.33,3.026,3.026,0,0,1-.988,2.317,3.5,3.5,0,0,1-2.488.924,3.291,3.291,0,0,1-2.384-.924,3.078,3.078,0,0,1-.952-2.3,3.127,3.127,0,0,1,.959-2.343A3.341,3.341,0,0,1,958.28,527.485Zm.041.859a2.482,2.482,0,0,0-1.792.682,2.29,2.29,0,0,0-.7,1.731,2.26,2.26,0,0,0,.7,1.706,2.446,2.446,0,0,0,1.761.682,2.4,2.4,0,0,0,1.773-.7,2.318,2.318,0,0,0,.711-1.72,2.272,2.272,0,0,0-.711-1.693,2.424,2.424,0,0,0-1.741-.689Z" transform="translate(-866.515 -380.799)" fill="#fff"/>
    <path id="Path_6434" data-name="Path 6434" d="M1088.09,535.313v-6.329h1.589a2.262,2.262,0,0,1,1.521.48,1.585,1.585,0,0,1,.565,1.286,1.558,1.558,0,0,1-1.074,1.555,2.643,2.643,0,0,1,.6.541,11.27,11.27,0,0,1,.814,1.206c.224.356.4.635.532.815l.333.448H1091.9l-.277-.414a.749.749,0,0,1-.055-.082l-.183-.248-.271-.462-.306-.493a5.021,5.021,0,0,0-.513-.622,1.912,1.912,0,0,0-.42-.333,1.535,1.535,0,0,0-.642-.1h-.239v2.759Zm1.179-5.56h-.278v2h.348a2.369,2.369,0,0,0,.944-.123.851.851,0,0,0,.4-.352,1.04,1.04,0,0,0,.147-.541.951.951,0,0,0-.169-.541.8.8,0,0,0-.444-.344,3.193,3.193,0,0,0-.951-.1Z" transform="translate(-991.759 -382.209)" fill="#fff"/>
    <path id="Path_6435" data-name="Path 6435" d="M1186.379,528.987h.855v6.33h-.917v-4.923l-1.944,2.446h-.168l-1.976-2.446v4.923h-.9v-6.33h.86l2.1,2.6Z" transform="translate(-1079.427 -382.212)" fill="#fff"/>
    <path id="Path_6436" data-name="Path 6436" d="M1294.048,528.4h.634l2.84,6.365h-.93l-.839-1.876h-2.7l-.792,1.876h-.935Zm1.331,3.68-1.026-2.292-.948,2.292Z" transform="translate(-1182.856 -381.66)" fill="#fff"/>
    <path id="Path_6437" data-name="Path 6437" d="M1382.21,528.775h5.292v.811h-2.2v5.531h-.915v-5.531h-2.173Z" transform="translate(-1268.318 -382.013)" fill="#fff"/>
    <path id="Path_6438" data-name="Path 6438" d="M1485.32,528.987h.915v6.33h-.915Z" transform="translate(-1365.269 -382.212)" fill="#fff"/>
    <path id="Path_6439" data-name="Path 6439" d="M1522.811,527.485a3.4,3.4,0,0,1,2.442.929,3.087,3.087,0,0,1,.971,2.33,3,3,0,0,1-.988,2.316,3.47,3.47,0,0,1-2.48.924,3.283,3.283,0,0,1-2.385-.924,3.059,3.059,0,0,1-.955-2.3,3.129,3.129,0,0,1,.955-2.343A3.374,3.374,0,0,1,1522.811,527.485Zm.032.859a2.48,2.48,0,0,0-1.792.682,2.3,2.3,0,0,0-.7,1.731,2.251,2.251,0,0,0,.7,1.706,2.6,2.6,0,0,0,3.528-.017,2.3,2.3,0,0,0,.7-1.72,2.261,2.261,0,0,0-.7-1.693,2.421,2.421,0,0,0-1.743-.689Z" transform="translate(-1397.332 -380.799)" fill="#fff"/>
    <path id="Path_6440" data-name="Path 6440" d="M1657.676,528.987h.864v6.33h-.776l-4.236-4.878v4.878h-.853v-6.33h.729l4.272,4.918Z" transform="translate(-1522.633 -382.212)" fill="#fff"/>
    <path id="Path_6441" data-name="Path 6441" d="M591.218,203.828h.859v6.332H591.3l-4.237-4.884v4.884h-.853v-6.332h.732l4.28,4.913Z" transform="translate(-519.84 -76.467)" fill="#fff"/>
    <g id="Group_16458" data-name="Group 16458" transform="translate(33.361 122.506)">
      <g id="Group_16457" data-name="Group 16457" transform="translate(3.813 0.029)">
        <path id="Path_6442" data-name="Path 6442" d="M97.287,133.821,101.8,129.5l-4.541-6.509Z" transform="translate(-97.262 -122.988)" fill="#fff"/>
      </g>
      <path id="Path_6443" data-name="Path 6443" d="M153.291,262.233l-2.57,2.475,2.554,6.516Z" transform="translate(-143.718 -253.891)" fill="#f6f6f6"/>
      <path id="Path_6444" data-name="Path 6444" d="M193.656,413.254V427.4l4.067-3.754Z" transform="translate(-184.087 -395.895)" fill="#eee"/>
      <path id="Path_6445" data-name="Path 6445" d="M193.506,262.352l.009,9.01,4.067,10.388,5.871-5.407Z" transform="translate(-183.947 -254.002)" fill="#f6f6f6"/>
      <path id="Path_6446" data-name="Path 6446" d="M193.506,122.506v8.349l9.947,13.991,4.933-4.541Z" transform="translate(-183.947 -122.506)" fill="#fff"/>
      <path id="Path_6447" data-name="Path 6447" d="M42.93,310.225l-.009-.026-2.554-6.516L37.22,306.7l-.009,13.13-3.849,3.82v9.526l9.571-8.811Z" transform="translate(-33.361 -292.865)" fill="#fff"/>
    </g>
    <g id="Group_16459" data-name="Group 16459" transform="translate(66.279 157.939)">
      <path id="Path_6448" data-name="Path 6448" d="M584.725,715.969h2.81v.659h-2.1V718.2h2.029v.662h-2.029v1.606H587.6v.659h-2.877Z" transform="translate(-584.725 -715.969)" fill="#fff"/>
      <path id="Path_6449" data-name="Path 6449" d="M649.866,744.481v.433a1.279,1.279,0,0,1,.983-.5,1.071,1.071,0,0,1,.967.616,2.243,2.243,0,0,1,.136.908v1.946h-.646v-1.941a1.369,1.369,0,0,0-.153-.746.573.573,0,0,0-.511-.224.924.924,0,0,0-.777.477v2.431h-.66v-3.4Z" transform="translate(-645.357 -742.716)" fill="#fff"/>
      <path id="Path_6450" data-name="Path 6450" d="M715.411,715.969h.646v2.213a1.232,1.232,0,0,1,1-.514,1.043,1.043,0,0,1,.585.17,1.02,1.02,0,0,1,.385.472,2.413,2.413,0,0,1,.126.892v1.941h-.646v-2.11a.957.957,0,0,0-.176-.6.556.556,0,0,0-.463-.228.757.757,0,0,0-.4.115,1.844,1.844,0,0,0-.415.381v2.438h-.646Z" transform="translate(-707.608 -715.969)" fill="#fff"/>
      <path id="Path_6451" data-name="Path 6451" d="M779.77,745.835v1.447c0,.116.038.174.114.174a.766.766,0,0,0,.367-.181v.411a2.087,2.087,0,0,1-.353.2.74.74,0,0,1-.279.052.433.433,0,0,1-.49-.34,1.372,1.372,0,0,1-.876.333.757.757,0,0,1-.567-.235.815.815,0,0,1-.227-.59.849.849,0,0,1,.222-.577,1.494,1.494,0,0,1,.629-.4l.827-.3v-.181q0-.614-.589-.614a1.4,1.4,0,0,0-1.029.57v-.734a1.314,1.314,0,0,1,1.082-.463,1.217,1.217,0,0,1,.848.288.9.9,0,0,1,.191.246.916.916,0,0,1,.108.307A4.745,4.745,0,0,1,779.77,745.835Zm-.635,1.373V746.2l-.433.174a1.441,1.441,0,0,0-.466.276.514.514,0,0,0-.007.69.448.448,0,0,0,.336.133A.8.8,0,0,0,779.135,747.208Z" transform="translate(-765.949 -742.713)" fill="#fff"/>
      <path id="Path_6452" data-name="Path 6452" d="M839.566,744.481v.433a1.278,1.278,0,0,1,.983-.5,1.071,1.071,0,0,1,.967.616,2.241,2.241,0,0,1,.137.908v1.946h-.646v-1.941a1.369,1.369,0,0,0-.153-.746.573.573,0,0,0-.511-.224.924.924,0,0,0-.777.477v2.431h-.66v-3.4Z" transform="translate(-823.73 -742.716)" fill="#fff"/>
      <path id="Path_6453" data-name="Path 6453" d="M904.945,747.089v.666a2.617,2.617,0,0,1-.951.189,1.617,1.617,0,0,1-1.222-.472,1.753,1.753,0,0,1-.456-1.269,1.86,1.86,0,0,1,.443-1.295,1.5,1.5,0,0,1,1.167-.492,1.878,1.878,0,0,1,.453.052,2.894,2.894,0,0,1,.495.187v.718a1.668,1.668,0,0,0-.908-.326.91.91,0,0,0-.717.32,1.193,1.193,0,0,0-.281.816,1.128,1.128,0,0,0,.3.829,1.1,1.1,0,0,0,.818.307A2.063,2.063,0,0,0,904.945,747.089Z" transform="translate(-883.354 -742.716)" fill="#fff"/>
      <path id="Path_6454" data-name="Path 6454" d="M963.665,721.547a.371.371,0,0,1,.273.115.386.386,0,0,1,.113.281.393.393,0,0,1-.113.281.367.367,0,0,1-.273.119.352.352,0,0,1-.262-.12.394.394,0,0,1-.114-.279.39.39,0,0,1,.114-.276A.351.351,0,0,1,963.665,721.547Zm-.319,1.432h.646v3.4h-.644Z" transform="translate(-940.687 -721.214)" fill="#fff"/>
      <path id="Path_6455" data-name="Path 6455" d="M996.459,744.481v.433a1.279,1.279,0,0,1,.983-.5,1.071,1.071,0,0,1,.967.616,2.242,2.242,0,0,1,.136.908v1.946H997.9v-1.941a1.368,1.368,0,0,0-.153-.746.573.573,0,0,0-.511-.224.924.924,0,0,0-.777.477v2.431H995.8v-3.4Z" transform="translate(-971.256 -742.716)" fill="#fff"/>
      <path id="Path_6456" data-name="Path 6456" d="M1054.863,746.706a1.057,1.057,0,0,1,.382-.86,1.581,1.581,0,0,1,1.041-.315h1.345v.525h-.66a1.41,1.41,0,0,1,.266.37.929.929,0,0,1,.074.381,1.124,1.124,0,0,1-.52.918,2.215,2.215,0,0,1-.75.218q-.367.056-.367.262a.223.223,0,0,0,.136.194,2.089,2.089,0,0,0,.495.157,5.211,5.211,0,0,1,.772.214,1,1,0,0,1,.311.222.852.852,0,0,1,.234.614.9.9,0,0,1-.413.773,1.9,1.9,0,0,1-1.1.289,1.919,1.919,0,0,1-1.116-.291.9.9,0,0,1-.419-.779q0-.692.82-.892-.326-.218-.326-.433a.4.4,0,0,1,.141-.3.854.854,0,0,1,.378-.2A1.118,1.118,0,0,1,1054.863,746.706Zm1.06,2.386a.915.915,0,0,0-.534.144.435.435,0,0,0-.21.37q0,.524.908.524a1.384,1.384,0,0,0,.666-.131.408.408,0,0,0,.236-.372.443.443,0,0,0-.3-.387,1.716,1.716,0,0,0-.769-.148Zm.153-2.979a.629.629,0,0,0-.629.629.574.574,0,0,0,.181.435.687.687,0,0,0,.914,0,.584.584,0,0,0,.183-.438.593.593,0,0,0-.184-.444.64.64,0,0,0-.465-.177Z" transform="translate(-1026.519 -743.764)" fill="#fff"/>
      <path id="Path_6457" data-name="Path 6457" d="M1163.1,715.969h.886l-2.15,2.453,2.679,2.716h-.969l-2.533-2.553v2.553h-.708v-5.169h.71v2.364Z" transform="translate(-1125.936 -715.969)" fill="#fff"/>
      <path id="Path_6458" data-name="Path 6458" d="M1244.281,744.481v.433a1.278,1.278,0,0,1,.983-.5,1.071,1.071,0,0,1,.967.616,2.238,2.238,0,0,1,.136.908v1.946h-.646v-1.941a1.372,1.372,0,0,0-.153-.746.573.573,0,0,0-.511-.224.924.924,0,0,0-.777.477v2.431h-.66v-3.4Z" transform="translate(-1204.28 -742.716)" fill="#fff"/>
      <path id="Path_6459" data-name="Path 6459" d="M1308.664,745.4a1.665,1.665,0,0,1,1.238.5,1.725,1.725,0,0,1,.494,1.259,1.634,1.634,0,0,1-.5,1.223,1.733,1.733,0,0,1-1.259.487,1.736,1.736,0,1,1,.028-3.471Zm-.036.607a1,1,0,0,0-.763.318,1.139,1.139,0,0,0-.3.81,1.087,1.087,0,0,0,.305.8,1.055,1.055,0,0,0,.787.309,1.037,1.037,0,0,0,.778-.315,1.194,1.194,0,0,0-.012-1.6,1.074,1.074,0,0,0-.8-.314Z" transform="translate(-1263.795 -743.643)" fill="#fff"/>
      <path id="Path_6460" data-name="Path 6460" d="M1378.246,745.53h.692l-1.442,3.462h-.206l-.965-2.372-.953,2.372h-.21l-1.454-3.462h.693l.855,2.064.833-2.064h.479l.823,2.064Z" transform="translate(-1326.604 -743.765)" fill="#fff"/>
      <path id="Path_6461" data-name="Path 6461" d="M1474.5,715.969h.646v5.169h-.646Z" transform="translate(-1421.374 -715.969)" fill="#fff"/>
      <path id="Path_6462" data-name="Path 6462" d="M1506.562,746.241h-2.3a1.132,1.132,0,0,0,.315.777,1.011,1.011,0,0,0,.747.288,1.892,1.892,0,0,0,1.177-.414v.66a2.121,2.121,0,0,1-.591.3,2.378,2.378,0,0,1-.686.089,1.492,1.492,0,0,1-.873-.233,1.673,1.673,0,0,1-.534-.629,1.983,1.983,0,0,1-.2-.912,1.86,1.86,0,0,1,.422-1.263,1.383,1.383,0,0,1,1.1-.487,1.269,1.269,0,0,1,1.036.472,1.947,1.947,0,0,1,.386,1.269Zm-2.281-.4h1.643a.962.962,0,0,0-.231-.621.725.725,0,0,0-.553-.218.779.779,0,0,0-.57.218,1.1,1.1,0,0,0-.289.621Z" transform="translate(-1448.756 -742.714)" fill="#fff"/>
      <path id="Path_6463" data-name="Path 6463" d="M1569.948,715.969h.649v5.169h-1.38a1.48,1.48,0,0,1-1.154-.477,1.836,1.836,0,0,1-.431-1.28,1.74,1.74,0,0,1,.452-1.236,1.511,1.511,0,0,1,1.154-.485,2.024,2.024,0,0,1,.709.144Zm0,4.592V718.4a1.3,1.3,0,0,0-.61-.157.965.965,0,0,0-.768.329,1.311,1.311,0,0,0-.285.888,1.2,1.2,0,0,0,.249.81.768.768,0,0,0,.315.229,2.04,2.04,0,0,0,.6.059Z" transform="translate(-1508.945 -715.969)" fill="#fff"/>
      <path id="Path_6464" data-name="Path 6464" d="M1629.963,746.705a1.058,1.058,0,0,1,.382-.86,1.581,1.581,0,0,1,1.041-.315h1.345v.524h-.66a1.412,1.412,0,0,1,.266.37.927.927,0,0,1,.074.381,1.123,1.123,0,0,1-.52.918,2.216,2.216,0,0,1-.75.218q-.367.056-.367.262a.223.223,0,0,0,.136.194,2.091,2.091,0,0,0,.495.157,5.2,5.2,0,0,1,.772.214.994.994,0,0,1,.311.222.852.852,0,0,1,.234.614.9.9,0,0,1-.413.773,1.9,1.9,0,0,1-1.1.288,1.919,1.919,0,0,1-1.116-.291.9.9,0,0,1-.419-.779q0-.692.82-.892-.326-.218-.327-.433a.4.4,0,0,1,.141-.3.855.855,0,0,1,.378-.2A1.118,1.118,0,0,1,1629.963,746.705Zm1.061,2.386a.915.915,0,0,0-.534.144.435.435,0,0,0-.21.37q0,.525.908.524a1.384,1.384,0,0,0,.666-.131.407.407,0,0,0,.236-.372.443.443,0,0,0-.3-.387,1.716,1.716,0,0,0-.769-.148Zm.153-2.979a.629.629,0,0,0-.629.629.578.578,0,0,0,.181.435.687.687,0,0,0,.914,0,.584.584,0,0,0,.182-.438.591.591,0,0,0-.184-.444.639.639,0,0,0-.466-.177Z" transform="translate(-1567.281 -743.764)" fill="#fff"/>
      <path id="Path_6465" data-name="Path 6465" d="M1694.893,746.241h-2.3a1.132,1.132,0,0,0,.315.777,1.012,1.012,0,0,0,.747.288,1.891,1.891,0,0,0,1.177-.414v.66a2.117,2.117,0,0,1-.59.3,2.38,2.38,0,0,1-.687.089,1.491,1.491,0,0,1-.873-.233,1.673,1.673,0,0,1-.534-.629,1.982,1.982,0,0,1-.2-.912,1.859,1.859,0,0,1,.422-1.263,1.383,1.383,0,0,1,1.1-.487,1.269,1.269,0,0,1,1.036.472,1.947,1.947,0,0,1,.387,1.269Zm-2.281-.4h1.643a.963.963,0,0,0-.23-.622.725.725,0,0,0-.553-.218.777.777,0,0,0-.57.218,1.1,1.1,0,0,0-.29.621Z" transform="translate(-1625.843 -742.714)" fill="#fff"/>
    </g>
    <g id="Group_16461" data-name="Group 16461" transform="translate(65.965 167.057)">
      <g id="Group_16460" data-name="Group 16460" transform="translate(0 0)">
        <path id="Path_6466" data-name="Path 6466" d="M580.649,871.877l-.424-.341a2.2,2.2,0,0,1-.566-.636,1.667,1.667,0,0,1,.15-1.711,1.032,1.032,0,0,1,.829-.381,1.316,1.316,0,0,1,.9.364v.839a1.173,1.173,0,0,0-.905-.537.624.624,0,0,0-.45.167.566.566,0,0,0-.175.429.8.8,0,0,0,.128.435,1.814,1.814,0,0,0,.416.426l.425.334a1.76,1.76,0,0,1,.712,1.438,1.559,1.559,0,0,1-.315,1.01,1,1,0,0,1-.815.389,1.463,1.463,0,0,1-1.049-.472v-.94a1.266,1.266,0,0,0,1.045.759.564.564,0,0,0,.436-.194.7.7,0,0,0,.174-.485,1.185,1.185,0,0,0-.513-.893Z" transform="translate(-579.49 -868.8)" fill="#fff"/>
        <path id="Path_6467" data-name="Path 6467" d="M640.378,869.925h.56v2.934a4.587,4.587,0,0,1-.066.9,2.308,2.308,0,0,1-.162.505,1.568,1.568,0,0,1-.235.361,1.661,1.661,0,0,1-2.429,0,1.64,1.64,0,0,1-.235-.364,2.271,2.271,0,0,1-.157-.494,4.834,4.834,0,0,1-.062-.917v-2.927h.56v2.934a2.812,2.812,0,0,0,.125,1.013,1.08,1.08,0,0,0,2.031-.152,3.521,3.521,0,0,0,.072-.862Z" transform="translate(-634.12 -869.851)" fill="#fff"/>
        <path id="Path_6468" data-name="Path 6468" d="M719.024,869.925h.556v4.5h1.752v.673h-2.308Z" transform="translate(-710.692 -869.851)" fill="#fff"/>
        <path id="Path_6469" data-name="Path 6469" d="M763.16,869.8h3.252v.659h-1.356v4.518h-.565v-4.518h-1.334Z" transform="translate(-752.192 -869.732)" fill="#fff"/>
        <path id="Path_6470" data-name="Path 6470" d="M823.771,869.43h.391l1.745,5.2h-.571l-.519-1.531h-1.66l-.486,1.531H822.1Zm.818,3.008-.629-1.872-.582,1.872Z" transform="translate(-807.613 -869.385)" fill="#fff"/>
        <path id="Path_6471" data-name="Path 6471" d="M908.793,869.925h.529v5.169h-.479l-2.6-3.981v3.981h-.524v-5.169h.451l2.622,4.014Z" transform="translate(-886.239 -869.851)" fill="#fff"/>
        <path id="Path_6472" data-name="Path 6472" d="M986.938,869.43h.391l1.745,5.2h-.57l-.519-1.531h-1.661l-.486,1.531h-.573Zm.818,3.008-.629-1.872-.583,1.872Z" transform="translate(-961.038 -869.385)" fill="#fff"/>
        <path id="Path_6473" data-name="Path 6473" d="M1053.5,869.8h3.252v.659H1055.4v4.518h-.56v-4.518H1053.5Z" transform="translate(-1025.196 -869.732)" fill="#fff"/>
        <path id="Path_6474" data-name="Path 6474" d="M1129.19,869.925h2.206v.659h-1.648v1.573h1.593v.662h-1.593v1.605h1.7v.659h-2.259Z" transform="translate(-1096.366 -869.851)" fill="#fff"/>
        <path id="Path_6475" data-name="Path 6475" d="M1227.53,868.688a1.843,1.843,0,0,1,1.5.758,2.973,2.973,0,0,1,.6,1.9,2.914,2.914,0,0,1-.605,1.893,1.883,1.883,0,0,1-1.527.75,1.792,1.792,0,0,1-1.465-.75,2.954,2.954,0,0,1-.586-1.878,3.03,3.03,0,0,1,.59-1.917A1.817,1.817,0,0,1,1227.53,868.688Zm.022.7a1.331,1.331,0,0,0-1.1.555,2.249,2.249,0,0,0-.43,1.416,2.2,2.2,0,0,0,.431,1.391,1.327,1.327,0,0,0,2.167-.012,2.242,2.242,0,0,0,.435-1.409,2.184,2.184,0,0,0-.435-1.382,1.311,1.311,0,0,0-1.071-.56Z" transform="translate(-1186.88 -868.688)" fill="#fff"/>
        <path id="Path_6476" data-name="Path 6476" d="M1319.51,869.925h2.075v.659h-1.518v1.443h1.518v.659h-1.518v2.409h-.558Z" transform="translate(-1275.324 -869.851)" fill="#fff"/>
        <path id="Path_6477" data-name="Path 6477" d="M1414.84,868.688a1.842,1.842,0,0,1,1.5.758,2.971,2.971,0,0,1,.6,1.9,2.914,2.914,0,0,1-.606,1.893,1.882,1.882,0,0,1-1.527.749,1.792,1.792,0,0,1-1.465-.75,2.952,2.952,0,0,1-.586-1.878,3.028,3.028,0,0,1,.59-1.917A1.816,1.816,0,0,1,1414.84,868.688Zm.022.7a1.33,1.33,0,0,0-1.1.555,2.247,2.247,0,0,0-.43,1.416,2.2,2.2,0,0,0,.432,1.391,1.326,1.326,0,0,0,2.166-.012,2.24,2.24,0,0,0,.435-1.409,2.181,2.181,0,0,0-.435-1.382,1.311,1.311,0,0,0-1.071-.56Z" transform="translate(-1363.004 -868.688)" fill="#fff"/>
        <path id="Path_6478" data-name="Path 6478" d="M1509.655,869.925h.521v5.169h-.558v-4.022l-1.2,2h-.1l-1.211-2v4.022h-.557v-5.169h.527l1.293,2.123Z" transform="translate(-1451.197 -869.851)" fill="#fff"/>
        <path id="Path_6479" data-name="Path 6479" d="M1588.234,869.43h.391l1.745,5.2h-.57l-.519-1.531h-1.661l-.486,1.531h-.573Zm.818,3.008-.629-1.872-.583,1.872Z" transform="translate(-1526.434 -869.385)" fill="#fff"/>
        <path id="Path_6480" data-name="Path 6480" d="M1673.261,869.925h.529v5.169h-.479l-2.6-3.981v3.981h-.525v-5.169h.451l2.622,4.014Z" transform="translate(-1605.063 -869.851)" fill="#fff"/>
      </g>
    </g>
    <g id="Group_16462" data-name="Group 16462" transform="translate(62.677 127.512)">
      <line id="Line_39" data-name="Line 39" y2="26.766" transform="translate(0.382)" fill="#31c0d6"/>
      <rect id="Rectangle_1530" data-name="Rectangle 1530" width="0.765" height="26.766" fill="#fff"/>
    </g>
  </g>
</svg>
