<svg xmlns="http://www.w3.org/2000/svg" width="210.971" height="95.052" viewBox="0 0 210.971 95.052"><defs><style>.a{fill:#133c8a;}.b{fill:#90afae;}.c{fill:#7e8daa;}.d{fill:#c4c7c8;}.e{fill:#00a89c;}.f{fill:#31c0d6;}.g{fill:#231f20;}</style></defs><g transform="translate(-33.357 -122.506)"><path d="M700.754,203.253h1.216l5.413,12.14h-1.766l-1.612-3.577H698.85l-1.51,3.577h-1.77Zm2.539,7.021-1.947-4.387-1.809,4.387Z" transform="translate(-586.83 -71.555)"/><path d="M786.3,203.619h10.106v1.54h-4.215v10.559h-1.737V205.159H786.3Z" transform="translate(-667.23 -71.879)"/><path d="M889.5,203.828h1.737V215.9H889.5Z" transform="translate(-758.684 -72.065)"/><path d="M929.932,202.137a6.593,6.593,0,0,1,4.664,1.777,5.974,5.974,0,0,1,1.851,4.46,5.784,5.784,0,0,1-1.882,4.421,6.628,6.628,0,0,1-4.736,1.759,6.314,6.314,0,0,1-4.554-1.759,5.875,5.875,0,0,1-1.825-4.388,5.979,5.979,0,0,1,1.858-4.493A6.406,6.406,0,0,1,929.932,202.137Zm.059,1.654a4.739,4.739,0,0,0-3.407,1.3,4.438,4.438,0,0,0-1.332,3.314,4.331,4.331,0,0,0,1.338,3.238,4.97,4.97,0,0,0,6.727-.02,4.409,4.409,0,0,0,1.35-3.292,4.306,4.306,0,0,0-1.35-3.226A4.618,4.618,0,0,0,929.992,203.791Z" transform="translate(-788.768 -70.566)"/><path d="M1066.316,203.828h1.658V215.9h-1.5l-8.078-9.312V215.9h-1.628V203.828h1.4l8.144,9.369Z" transform="translate(-906.911 -72.065)"/><path d="M1171.382,203.253h1.2l5.419,12.14h-1.754l-1.613-3.577h-5.162l-1.5,3.577H1166.2Zm2.551,7.034-1.968-4.4-1.8,4.4Z" transform="translate(-1003.887 -71.555)"/><path d="M1281.5,203.828h1.75v10.506h5.426V215.9H1281.5Z" transform="translate(-1106.058 -72.065)"/><path d="M1407.842,211.925v1.913a9.105,9.105,0,0,1-4.4,1.04,6.746,6.746,0,0,1-3.426-.826,5.905,5.905,0,0,1-2.23-2.242,6.08,6.08,0,0,1-.82-3.079,5.94,5.94,0,0,1,1.869-4.449,6.579,6.579,0,0,1,4.65-1.779,10.745,10.745,0,0,1,4.225.984v1.862a8.3,8.3,0,0,0-4.147-1.2,4.817,4.817,0,0,0-3.439,1.295,4.4,4.4,0,0,0-1.373,3.29,4.305,4.305,0,0,0,1.354,3.275,4.874,4.874,0,0,0,3.437,1.264A7.8,7.8,0,0,0,1407.842,211.925Z" transform="translate(-1208.383 -70.89)"/><path d="M1511.2,203.828h6.852v1.527h-5.121v3.685h4.943V210.6h-4.943v3.752h5.272v1.538h-7Z" transform="translate(-1309.612 -72.065)"/><path d="M1599.03,203.828h1.637V215.9h-1.479l-8.085-9.312V215.9h-1.619V203.828h1.394l8.153,9.369Z" transform="translate(-1378.982 -72.065)"/><path d="M1701.458,203.619h10.077v1.54h-4.21v10.559h-1.738V205.159h-4.129Z" transform="translate(-1478.21 -71.879)"/><path d="M1804.831,215.9V203.828h3.017a4.411,4.411,0,0,1,2.926.91,3.047,3.047,0,0,1,1.087,2.444,3.242,3.242,0,0,1-.535,1.829,3.189,3.189,0,0,1-1.524,1.154,5.069,5.069,0,0,1,1.139,1.034,19.6,19.6,0,0,1,1.551,2.3c.423.677.759,1.2,1.021,1.531l.631.874h-2.055l-.53-.786a1.433,1.433,0,0,0-.1-.155l-.346-.488-.528-.881-.584-.939a9.132,9.132,0,0,0-.975-1.174,3.479,3.479,0,0,0-.8-.646,3.021,3.021,0,0,0-1.208-.193h-.464V215.9Zm2.255-10.613h-.532V209.1h.672a5.244,5.244,0,0,0,1.8-.207,1.767,1.767,0,0,0,.749-.7,1.787,1.787,0,0,0,.279-1.019,1.941,1.941,0,0,0-.3-1.047,1.657,1.657,0,0,0-.861-.647A6.246,6.246,0,0,0,1807.086,205.29Z" transform="translate(-1569.816 -72.065)"/><path d="M585.982,366.263h6.435v1.547h-4.712v3.374h4.712v1.542h-4.712v5.632h-1.723Z" transform="translate(-489.716 -216.008)"/><path d="M660.5,364.939a6.444,6.444,0,0,1,4.664,1.772,5.82,5.82,0,0,1,1.855,4.436,5.723,5.723,0,0,1-1.877,4.418,6.624,6.624,0,0,1-4.721,1.755,6.26,6.26,0,0,1-4.553-1.755,5.81,5.81,0,0,1-1.831-4.376,5.92,5.92,0,0,1,1.84-4.478A6.317,6.317,0,0,1,660.5,364.939Zm.079,1.63a4.693,4.693,0,0,0-3.423,1.3,4.431,4.431,0,0,0-1.332,3.318,4.343,4.343,0,0,0,1.345,3.245,4.98,4.98,0,0,0,6.723-.031,4.409,4.409,0,0,0,1.358-3.295,4.292,4.292,0,0,0-1.358-3.225A4.507,4.507,0,0,0,660.583,366.569Z" transform="translate(-550.028 -214.835)"/><path d="M787.3,378.357V366.263h3.019a4.35,4.35,0,0,1,2.92.92,3.344,3.344,0,0,1,.539,4.274,3.183,3.183,0,0,1-1.509,1.17,4.919,4.919,0,0,1,1.13,1.021,21.166,21.166,0,0,1,1.567,2.289c.421.7.751,1.213,1.012,1.562l.629.859h-2.054l-.53-.8a.769.769,0,0,0-.109-.145l-.337-.477-.523-.879-.583-.937a9.937,9.937,0,0,0-.975-1.19,3.626,3.626,0,0,0-.815-.631,2.581,2.581,0,0,0-1.2-.2h-.455v5.255Zm2.25-10.615h-.526v3.815h.657a4.874,4.874,0,0,0,1.814-.228,1.694,1.694,0,0,0,.749-.665,2.041,2.041,0,0,0,.274-1.044,1.808,1.808,0,0,0-.3-1.034,1.588,1.588,0,0,0-.863-.659A5.823,5.823,0,0,0,789.555,367.743Z" transform="translate(-668.121 -216.008)"/><path d="M922.37,372.124l-1.315-.8a6.25,6.25,0,0,1-1.765-1.487,2.813,2.813,0,0,1-.515-1.688,2.99,2.99,0,0,1,.978-2.309,3.715,3.715,0,0,1,2.571-.9,4.876,4.876,0,0,1,2.78.861v1.957a3.989,3.989,0,0,0-2.824-1.261,2.251,2.251,0,0,0-1.38.4,1.2,1.2,0,0,0-.543,1.012,1.657,1.657,0,0,0,.4,1.025,4.9,4.9,0,0,0,1.29.969l1.328.8a3.845,3.845,0,0,1,2.219,3.362,3.1,3.1,0,0,1-.985,2.358,3.561,3.561,0,0,1-2.525.9,5.255,5.255,0,0,1-3.259-1.11v-2.191a4.024,4.024,0,0,0,3.24,1.775,2,2,0,0,0,1.354-.449,1.421,1.421,0,0,0,.547-1.135C923.962,373.482,923.419,372.779,922.37,372.124Z" transform="translate(-784.625 -214.835)"/><path d="M986.246,366.263h10.1v1.529h-4.217v10.565h-1.743V367.792h-4.135Z" transform="translate(-844.415 -216.008)"/><path d="M1067.187,365.742h1.22l5.415,12.154h-1.777l-1.605-3.592H1065.3l-1.522,3.592h-1.77Zm2.55,7.028-1.962-4.375-1.791,4.375Z" transform="translate(-911.552 -215.547)"/><path d="M1152.818,366.263h10.089v1.529h-4.214v10.565h-1.729V367.792h-4.146Z" transform="translate(-992.025 -216.008)"/><path d="M1255.954,366.263h1.735v12.094h-1.735Z" transform="translate(-1083.421 -216.008)"/><path d="M1292.921,372.124l-1.305-.8a6.006,6.006,0,0,1-1.755-1.487,2.833,2.833,0,0,1-.532-1.688,2.926,2.926,0,0,1,1-2.309,3.679,3.679,0,0,1,2.568-.9,4.865,4.865,0,0,1,2.775.861v1.957a4.018,4.018,0,0,0-2.806-1.261,2.3,2.3,0,0,0-1.406.4,1.249,1.249,0,0,0-.546,1.012,1.7,1.7,0,0,0,.406,1.025,5,5,0,0,0,1.3.969l1.32.8a3.863,3.863,0,0,1,2.21,3.362,3.1,3.1,0,0,1-.964,2.358,3.594,3.594,0,0,1-2.543.9,5.33,5.33,0,0,1-3.264-1.11v-2.191a4.07,4.07,0,0,0,3.25,1.775,2,2,0,0,0,1.358-.449,1.443,1.443,0,0,0,.537-1.135C1294.525,373.482,1293.992,372.779,1292.921,372.124Z" transform="translate(-1112.997 -214.835)"/><path d="M1356.873,366.263h10.094v1.529h-4.2v10.565h-1.739V367.792h-4.155Z" transform="translate(-1172.852 -216.008)"/><path d="M1460.055,366.382h1.742v12.081h-1.742Z" transform="translate(-1264.288 -216.114)"/><path d="M1505.607,374.369v1.913a8.951,8.951,0,0,1-4.4,1.038,6.841,6.841,0,0,1-3.426-.808,6.006,6.006,0,0,1-2.23-2.248,6.068,6.068,0,0,1-.82-3.073,5.937,5.937,0,0,1,1.875-4.454,6.505,6.505,0,0,1,4.638-1.8,10.831,10.831,0,0,1,4.223,1v1.858a8.233,8.233,0,0,0-4.135-1.212,4.833,4.833,0,0,0-3.435,1.323,4.634,4.634,0,0,0-.04,6.538,4.822,4.822,0,0,0,3.46,1.283A7.753,7.753,0,0,0,1505.607,374.369Z" transform="translate(-1295.014 -214.835)"/><path d="M1607.29,372.124l-1.307-.8a6.057,6.057,0,0,1-1.753-1.487,2.747,2.747,0,0,1-.526-1.688,2.97,2.97,0,0,1,.979-2.309,3.706,3.706,0,0,1,2.572-.9,4.82,4.82,0,0,1,2.769.861v1.957a3.951,3.951,0,0,0-2.807-1.261,2.24,2.24,0,0,0-1.382.4,1.216,1.216,0,0,0-.556,1,1.661,1.661,0,0,0,.412,1.038,4.958,4.958,0,0,0,1.29.969l1.313.8a3.832,3.832,0,0,1,2.212,3.362,3.111,3.111,0,0,1-.967,2.358,3.581,3.581,0,0,1-2.529.9,5.237,5.237,0,0,1-3.26-1.11v-2.177a4.069,4.069,0,0,0,3.236,1.761,2.01,2.01,0,0,0,1.362-.449,1.433,1.433,0,0,0,.538-1.135C1608.885,373.482,1608.368,372.779,1607.29,372.124Z" transform="translate(-1391.584 -214.835)"/><path d="M586.792,542.871l-1.413-1.63c-.119.109-.326.279-.611.506l-.036.033a5.406,5.406,0,0,1-1.509.878,5.03,5.03,0,0,1-1.717.366,3.008,3.008,0,0,1-2.117-.823,2.694,2.694,0,0,1-.876-1.994,2.838,2.838,0,0,1,.429-1.527,5.452,5.452,0,0,1,1.4-1.406l.04-.011a6.437,6.437,0,0,1,.975-.648,4.23,4.23,0,0,1-1.369-2.8,2.636,2.636,0,0,1,.833-2.011,3.168,3.168,0,0,1,2.181-.763,3.134,3.134,0,0,1,2.16.744,2.453,2.453,0,0,1,.85,1.926c0,1.044-.705,2.072-2.118,3.1l-.123.083,1.711,1.945a7.985,7.985,0,0,0,1.29-1.963h1.735a11.026,11.026,0,0,1-1.973,3.167l2.456,2.832Zm-2.881-2.486.4-.361-1.954-2.272-.769.538c-.9.6-1.358,1.228-1.358,1.859a1.1,1.1,0,0,0,.46.861,1.548,1.548,0,0,0,1.055.359,2.808,2.808,0,0,0,1.1-.26A4.539,4.539,0,0,0,583.911,540.384Zm-1.111-4.668.653-.467a1.856,1.856,0,0,0,.931-1.507,1.133,1.133,0,0,0-.388-.874,1.31,1.31,0,0,0-.975-.355,1.353,1.353,0,0,0-.943.32,1.015,1.015,0,0,0-.366.828,2.228,2.228,0,0,0,.294,1.034A3.444,3.444,0,0,0,582.8,535.716Z" transform="translate(-483.097 -362.024)"/><path d="M726.441,528.987h1.722v12.068h-1.722Z" transform="translate(-614.186 -360.209)"/><path d="M775.094,528.987h1.649v12.068h-1.5l-8.077-9.3v9.3h-1.625V528.987h1.4l8.149,9.376Z" transform="translate(-648.836 -360.209)"/><path d="M886.776,528.987h6.442v1.529h-4.712v3.38h4.712v1.538h-4.712v5.621h-1.73Z" transform="translate(-756.269 -360.209)"/><path d="M961.35,527.487a6.5,6.5,0,0,1,4.668,1.772,5.854,5.854,0,0,1,1.865,4.442A5.768,5.768,0,0,1,966,538.118a6.663,6.663,0,0,1-4.743,1.761,6.274,6.274,0,0,1-4.546-1.761,5.868,5.868,0,0,1-1.815-4.392,5.962,5.962,0,0,1,1.829-4.467A6.371,6.371,0,0,1,961.35,527.487Zm.079,1.638a4.732,4.732,0,0,0-3.417,1.3,4.366,4.366,0,0,0-1.332,3.3,4.309,4.309,0,0,0,1.332,3.252,4.662,4.662,0,0,0,3.357,1.3,4.584,4.584,0,0,0,3.38-1.332,4.419,4.419,0,0,0,1.356-3.279,4.333,4.333,0,0,0-1.356-3.227A4.621,4.621,0,0,0,961.429,529.125Z" transform="translate(-816.635 -358.879)"/><path d="M1088.093,541.055V528.987h3.03a4.313,4.313,0,0,1,2.9.915,3.022,3.022,0,0,1,1.078,2.451,2.971,2.971,0,0,1-2.048,2.965,5.045,5.045,0,0,1,1.145,1.031,21.519,21.519,0,0,1,1.552,2.3c.427.679.769,1.211,1.014,1.553l.635.854h-2.05l-.528-.789a1.365,1.365,0,0,1-.105-.156l-.349-.473-.517-.881-.583-.94a9.61,9.61,0,0,0-.978-1.185,3.649,3.649,0,0,0-.8-.635,2.93,2.93,0,0,0-1.225-.2h-.456v5.26Zm2.248-10.6h-.53v3.814h.664a4.517,4.517,0,0,0,1.8-.234,1.623,1.623,0,0,0,.771-.672,1.981,1.981,0,0,0,.28-1.032A1.811,1.811,0,0,0,1093,531.3a1.532,1.532,0,0,0-.847-.655A6.088,6.088,0,0,0,1090.341,530.454Z" transform="translate(-934.669 -360.209)"/><path d="M1190.96,528.987h1.631v12.068h-1.748v-9.387l-3.707,4.664h-.32l-3.768-4.664v9.387h-1.722V528.987h1.639l4,4.955Z" transform="translate(-1017.289 -360.209)"/><path d="M1296.524,528.4h1.209l5.415,12.135h-1.774l-1.6-3.576h-5.155l-1.51,3.576h-1.783Zm2.537,7.017-1.956-4.369-1.808,4.369Z" transform="translate(-1114.763 -359.688)"/><path d="M1382.212,528.775H1392.3v1.546h-4.2v10.546h-1.744V530.321h-4.143Z" transform="translate(-1195.306 -360.021)"/><path d="M1485.316,528.987h1.744v12.068h-1.744Z" transform="translate(-1286.673 -360.209)"/><path d="M1525.892,527.487a6.488,6.488,0,0,1,4.656,1.772,5.886,5.886,0,0,1,1.852,4.442,5.724,5.724,0,0,1-1.883,4.416,6.616,6.616,0,0,1-4.729,1.761,6.26,6.26,0,0,1-4.548-1.761,5.833,5.833,0,0,1-1.82-4.392,5.965,5.965,0,0,1,1.82-4.467A6.432,6.432,0,0,1,1525.892,527.487Zm.061,1.638a4.729,4.729,0,0,0-3.417,1.3,4.385,4.385,0,0,0-1.326,3.3,4.291,4.291,0,0,0,1.339,3.252,4.957,4.957,0,0,0,6.727-.032,4.389,4.389,0,0,0,1.34-3.279,4.31,4.31,0,0,0-1.34-3.227A4.615,4.615,0,0,0,1525.953,529.125Z" transform="translate(-1316.894 -358.879)"/><path d="M1662.212,528.987h1.647v12.068h-1.48l-8.077-9.3v9.3h-1.626V528.987h1.391l8.145,9.376Z" transform="translate(-1434.981 -360.209)"/><path d="M595.762,203.828H597.4V215.9h-1.49l-8.079-9.312V215.9h-1.626V203.828H587.6l8.16,9.367Z" transform="translate(-489.917 -72.065)"/><g transform="translate(33.357 122.506)"><g transform="translate(7.275 0.055)"><path class="a" d="M97.309,143.643l8.611-8.244-8.658-12.411Z" transform="translate(-97.263 -122.988)"/></g><path class="a" d="M155.621,262.233l-4.9,4.718,4.87,12.423Z" transform="translate(-137.364 -246.327)"/><path class="b" d="M193.656,413.254v26.962l7.754-7.157Z" transform="translate(-175.408 -380.156)"/><path class="c" d="M193.506,262.352l.017,17.178,7.754,19.806,11.194-10.31Z" transform="translate(-175.276 -246.432)"/><path class="d" d="M193.506,122.506v15.919L212.472,165.1l9.406-8.658Z" transform="translate(-175.276 -122.506)"/><path class="e" d="M51.605,316.156l-.017-.05-4.87-12.423-6,5.753L40.7,334.47l-7.339,7.283v18.162l18.248-16.8Z" transform="translate(-33.357 -283.058)"/></g><g transform="translate(96.123 190.064)"><path class="e" d="M584.725,715.969h5.358v1.256h-4v3.005h3.869v1.263h-3.869v3.062h4.133v1.256h-5.486Z" transform="translate(-584.725 -715.969)"/><path class="e" d="M650.465,744.541v.825a2.438,2.438,0,0,1,1.874-.952,2.043,2.043,0,0,1,1.843,1.174,4.275,4.275,0,0,1,.26,1.732v3.711h-1.231v-3.7a2.611,2.611,0,0,0-.291-1.422,1.092,1.092,0,0,0-.974-.427,1.762,1.762,0,0,0-1.482.91v4.635h-1.258v-6.49Z" transform="translate(-641.867 -741.176)"/><path class="e" d="M715.411,715.969h1.231v4.219a2.348,2.348,0,0,1,1.915-.98,1.988,1.988,0,0,1,1.116.325,1.945,1.945,0,0,1,.734.9,4.6,4.6,0,0,1,.24,1.7v3.7h-1.231V721.81a1.824,1.824,0,0,0-.335-1.147,1.061,1.061,0,0,0-.883-.434,1.443,1.443,0,0,0-.765.219,3.518,3.518,0,0,0-.792.727v4.649h-1.231Z" transform="translate(-700.534 -715.969)"/><path class="e" d="M781.866,747.13v2.758c0,.221.072.332.217.332a1.463,1.463,0,0,0,.7-.346v.783a3.983,3.983,0,0,1-.673.384,1.41,1.41,0,0,1-.531.1.825.825,0,0,1-.934-.649,2.615,2.615,0,0,1-1.671.635,1.443,1.443,0,0,1-1.082-.448,1.554,1.554,0,0,1-.433-1.125,1.619,1.619,0,0,1,.423-1.1,2.846,2.846,0,0,1,1.2-.765l1.576-.564v-.346q0-1.171-1.123-1.171a2.67,2.67,0,0,0-1.962,1.086v-1.4a2.506,2.506,0,0,1,2.063-.882,2.321,2.321,0,0,1,1.617.55,1.714,1.714,0,0,1,.365.469,1.746,1.746,0,0,1,.206.586A9.021,9.021,0,0,1,781.866,747.13Zm-1.211,2.617v-1.926l-.825.332a2.746,2.746,0,0,0-.889.526.98.98,0,0,0-.014,1.315.853.853,0,0,0,.64.254A1.518,1.518,0,0,0,780.655,749.747Z" transform="translate(-755.515 -741.176)"/><path class="e" d="M840.164,744.541v.825a2.437,2.437,0,0,1,1.874-.952,2.043,2.043,0,0,1,1.843,1.174,4.274,4.274,0,0,1,.261,1.732v3.711h-1.231v-3.7a2.612,2.612,0,0,0-.291-1.422,1.092,1.092,0,0,0-.974-.427,1.762,1.762,0,0,0-1.482.91v4.635h-1.258v-6.49Z" transform="translate(-809.971 -741.176)"/><path class="e" d="M907.33,749.514v1.27a4.989,4.989,0,0,1-1.813.36,3.083,3.083,0,0,1-2.33-.9,3.342,3.342,0,0,1-.869-2.42,3.547,3.547,0,0,1,.845-2.469,2.853,2.853,0,0,1,2.226-.938,3.585,3.585,0,0,1,.863.1,5.518,5.518,0,0,1,.943.357v1.369a3.18,3.18,0,0,0-1.731-.621,1.735,1.735,0,0,0-1.367.61,2.275,2.275,0,0,0-.535,1.555,2.151,2.151,0,0,0,.578,1.58,2.092,2.092,0,0,0,1.559.586A3.934,3.934,0,0,0,907.33,749.514Z" transform="translate(-866.164 -741.176)"/><path class="e" d="M964.006,721.547a.708.708,0,0,1,.521.219.735.735,0,0,1,.216.536.75.75,0,0,1-.216.536.7.7,0,0,1-.521.226.67.67,0,0,1-.5-.229.751.751,0,0,1-.217-.532.743.743,0,0,1,.217-.526A.669.669,0,0,1,964.006,721.547Zm-.609,2.73h1.231v6.49H963.4Z" transform="translate(-920.195 -720.912)"/><path class="e" d="M997.056,744.541v.825a2.438,2.438,0,0,1,1.874-.952,2.043,2.043,0,0,1,1.843,1.174,4.275,4.275,0,0,1,.26,1.732v3.711H999.8v-3.7a2.609,2.609,0,0,0-.291-1.422,1.092,1.092,0,0,0-.974-.427,1.762,1.762,0,0,0-1.482.91v4.635H995.8v-6.49Z" transform="translate(-949.003 -741.176)"/><path class="e" d="M1055.129,747.773a2.017,2.017,0,0,1,.728-1.64,3.015,3.015,0,0,1,1.985-.6h2.564v1h-1.259a2.691,2.691,0,0,1,.508.706,1.767,1.767,0,0,1,.142.726,2.142,2.142,0,0,1-.991,1.75,4.225,4.225,0,0,1-1.431.416q-.7.106-.7.5a.424.424,0,0,0,.26.37,3.985,3.985,0,0,0,.944.3,9.929,9.929,0,0,1,1.472.409,1.9,1.9,0,0,1,.592.423,1.625,1.625,0,0,1,.446,1.171,1.712,1.712,0,0,1-.788,1.474,3.616,3.616,0,0,1-2.107.55,3.657,3.657,0,0,1-2.127-.554,1.723,1.723,0,0,1-.8-1.485q0-1.319,1.563-1.7-.622-.416-.622-.825a.765.765,0,0,1,.268-.564,1.625,1.625,0,0,1,.72-.374A2.131,2.131,0,0,1,1055.129,747.773Zm2.022,4.55a1.746,1.746,0,0,0-1.018.275.829.829,0,0,0-.4.705q0,1,1.732,1a2.639,2.639,0,0,0,1.269-.25.778.778,0,0,0,.45-.709.845.845,0,0,0-.568-.737A3.272,3.272,0,0,0,1057.151,752.324Zm.291-5.679a1.2,1.2,0,0,0-1.2,1.2,1.094,1.094,0,0,0,.345.829,1.31,1.31,0,0,0,1.742-.007,1.114,1.114,0,0,0,.348-.836,1.129,1.129,0,0,0-.351-.847A1.22,1.22,0,0,0,1057.442,746.645Z" transform="translate(-1001.088 -742.165)"/><path class="e" d="M1165.633,715.969h1.69l-4.1,4.677,5.107,5.178h-1.847l-4.83-4.868v4.868H1160.3v-9.855h1.353v4.508Z" transform="translate(-1094.781 -715.969)"/><path class="e" d="M1244.877,744.541v.825a2.437,2.437,0,0,1,1.874-.952,2.043,2.043,0,0,1,1.843,1.174,4.275,4.275,0,0,1,.26,1.732v3.711h-1.231v-3.7a2.613,2.613,0,0,0-.291-1.422,1.093,1.093,0,0,0-.974-.427,1.762,1.762,0,0,0-1.482.91v4.635h-1.258v-6.49Z" transform="translate(-1168.613 -741.176)"/><path class="e" d="M1310.246,745.4a3.174,3.174,0,0,1,2.36.956,3.287,3.287,0,0,1,.941,2.4,3.117,3.117,0,0,1-.954,2.332,3.305,3.305,0,0,1-2.4.928,3.216,3.216,0,0,1-3.281-3.295,3.246,3.246,0,0,1,3.335-3.323Zm-.068,1.157a1.9,1.9,0,0,0-1.454.607,2.17,2.17,0,0,0-.569,1.545,2.072,2.072,0,0,0,.582,1.52,2.01,2.01,0,0,0,1.5.589,1.978,1.978,0,0,0,1.484-.6,2.276,2.276,0,0,0-.023-3.058A2.047,2.047,0,0,0,1310.178,746.561Z" transform="translate(-1224.7 -742.053)"/><path class="e" d="M1382.363,745.53h1.32l-2.749,6.6h-.393l-1.84-4.522-1.817,4.522h-.4l-2.772-6.6h1.322l1.631,3.936,1.589-3.936h.913l1.57,3.936Z" transform="translate(-1283.897 -742.165)"/><path class="e" d="M1474.5,715.969h1.231v9.855H1474.5Z" transform="translate(-1373.209 -715.969)"/><path class="e" d="M1509.228,747.9h-4.376a2.159,2.159,0,0,0,.6,1.481,1.928,1.928,0,0,0,1.424.55,3.607,3.607,0,0,0,2.245-.79V750.4a4.042,4.042,0,0,1-1.126.564,4.535,4.535,0,0,1-1.309.169,2.844,2.844,0,0,1-1.664-.444,3.19,3.19,0,0,1-1.018-1.2,3.78,3.78,0,0,1-.383-1.739,3.545,3.545,0,0,1,.805-2.409,2.638,2.638,0,0,1,2.091-.928,2.419,2.419,0,0,1,1.975.9,3.712,3.712,0,0,1,.737,2.42Zm-4.349-.769h3.132a1.835,1.835,0,0,0-.44-1.185,1.381,1.381,0,0,0-1.055-.416,1.483,1.483,0,0,0-1.086.416A2.1,2.1,0,0,0,1504.879,747.13Z" transform="translate(-1399.016 -741.176)"/><path class="e" d="M1572.045,715.969h1.238v9.855h-2.631a2.821,2.821,0,0,1-2.2-.91,3.5,3.5,0,0,1-.822-2.441,3.319,3.319,0,0,1,.862-2.356,2.88,2.88,0,0,1,2.2-.924,3.859,3.859,0,0,1,1.353.275Zm0,8.755v-4.113a2.474,2.474,0,0,0-1.163-.3,1.839,1.839,0,0,0-1.465.628,2.5,2.5,0,0,0-.544,1.693,2.279,2.279,0,0,0,.474,1.545,1.461,1.461,0,0,0,.6.437,3.892,3.892,0,0,0,1.143.113Z" transform="translate(-1455.738 -715.969)"/><path class="e" d="M1630.226,747.773a2.017,2.017,0,0,1,.728-1.64,3.015,3.015,0,0,1,1.985-.6h2.564v1h-1.259a2.687,2.687,0,0,1,.507.706,1.765,1.765,0,0,1,.142.726,2.142,2.142,0,0,1-.991,1.75,4.223,4.223,0,0,1-1.43.416q-.7.106-.7.5a.424.424,0,0,0,.26.37,3.987,3.987,0,0,0,.944.3,9.926,9.926,0,0,1,1.472.409,1.9,1.9,0,0,1,.592.423,1.624,1.624,0,0,1,.446,1.171,1.712,1.712,0,0,1-.788,1.474,3.616,3.616,0,0,1-2.107.55,3.657,3.657,0,0,1-2.127-.554,1.723,1.723,0,0,1-.8-1.485q0-1.319,1.563-1.7-.622-.416-.623-.825a.766.766,0,0,1,.268-.564,1.625,1.625,0,0,1,.721-.374A2.131,2.131,0,0,1,1630.226,747.773Zm2.023,4.55a1.746,1.746,0,0,0-1.018.275.829.829,0,0,0-.4.705q0,1,1.731,1a2.639,2.639,0,0,0,1.269-.25.777.777,0,0,0,.45-.709.845.845,0,0,0-.568-.737A3.273,3.273,0,0,0,1632.249,752.324Zm.291-5.679a1.2,1.2,0,0,0-1.2,1.2,1.1,1.1,0,0,0,.345.829,1.31,1.31,0,0,0,1.742-.007,1.114,1.114,0,0,0,.348-.836,1.128,1.128,0,0,0-.351-.847A1.219,1.219,0,0,0,1632.54,746.645Z" transform="translate(-1510.719 -742.165)"/><path class="e" d="M1697.557,747.9h-4.376a2.159,2.159,0,0,0,.6,1.481,1.928,1.928,0,0,0,1.424.55,3.607,3.607,0,0,0,2.245-.79V750.4a4.041,4.041,0,0,1-1.126.564,4.537,4.537,0,0,1-1.309.169,2.845,2.845,0,0,1-1.664-.444,3.192,3.192,0,0,1-1.018-1.2,3.778,3.778,0,0,1-.382-1.739,3.545,3.545,0,0,1,.805-2.409,2.638,2.638,0,0,1,2.091-.928,2.42,2.42,0,0,1,1.975.9,3.713,3.713,0,0,1,.737,2.42Zm-4.349-.769h3.132a1.835,1.835,0,0,0-.439-1.185,1.381,1.381,0,0,0-1.055-.416,1.482,1.482,0,0,0-1.086.416A2.1,2.1,0,0,0,1693.207,747.13Z" transform="translate(-1565.907 -741.176)"/></g><g transform="translate(95.527 207.449)"><g transform="translate(0)"><path class="a" d="M581.7,874.66l-.808-.651a4.2,4.2,0,0,1-1.08-1.212,3.179,3.179,0,0,1,.286-3.263,1.968,1.968,0,0,1,1.58-.726,2.509,2.509,0,0,1,1.707.693v1.6a2.237,2.237,0,0,0-1.726-1.024,1.19,1.19,0,0,0-.857.319,1.079,1.079,0,0,0-.333.818,1.52,1.52,0,0,0,.245.83,3.458,3.458,0,0,0,.794.812l.81.637a3.356,3.356,0,0,1,1.358,2.742,2.972,2.972,0,0,1-.6,1.926,1.9,1.9,0,0,1-1.553.741,2.789,2.789,0,0,1-2-.9v-1.792a2.415,2.415,0,0,0,1.992,1.448,1.075,1.075,0,0,0,.832-.37,1.331,1.331,0,0,0,.331-.925A2.26,2.26,0,0,0,581.7,874.66Z" transform="translate(-579.493 -868.794)"/><path class="a" d="M642.906,869.925h1.068v5.594a8.741,8.741,0,0,1-.125,1.715,4.414,4.414,0,0,1-.308.963,2.985,2.985,0,0,1-.449.688,3.168,3.168,0,0,1-4.631.007,3.132,3.132,0,0,1-.449-.694,4.332,4.332,0,0,1-.3-.942,9.223,9.223,0,0,1-.119-1.749v-5.58h1.068v5.594a5.359,5.359,0,0,0,.238,1.932,2.1,2.1,0,0,0,3.42.543,2.107,2.107,0,0,0,.452-.833,6.71,6.71,0,0,0,.138-1.643Z" transform="translate(-630.976 -869.784)"/><path class="a" d="M719.024,869.925h1.061V878.5h3.341v1.284h-4.4Z" transform="translate(-703.14 -869.784)"/><path class="a" d="M763.162,869.8h6.2v1.256h-2.585v8.614H765.7v-8.614h-2.543Z" transform="translate(-742.254 -869.67)"/><path class="a" d="M825.285,869.43h.746l3.328,9.912h-1.088l-.989-2.92h-3.165l-.927,2.92H822.1Zm1.56,5.735-1.2-3.569-1.11,3.569Z" transform="translate(-794.481 -869.345)"/><path class="a" d="M911.582,869.925h1.009v9.855h-.914l-4.961-7.59v7.59h-1v-9.855h.859l5,7.654Z" transform="translate(-868.583 -869.784)"/><path class="a" d="M988.454,869.43h.746l3.327,9.912h-1.087l-.989-2.92h-3.166l-.927,2.92h-1.092Zm1.56,5.735-1.2-3.569-1.111,3.569Z" transform="translate(-939.075 -869.345)"/><path class="a" d="M1053.5,869.8h6.2v1.256h-2.585v8.614h-1.068v-8.614H1053.5Z" transform="translate(-999.538 -869.67)"/><path class="a" d="M1129.185,869.925h4.205v1.256h-3.143v3h3.037v1.263h-3.037v3.061h3.244v1.256h-4.306Z" transform="translate(-1066.61 -869.784)"/><path class="a" d="M1229.42,868.688a3.513,3.513,0,0,1,2.863,1.445,5.668,5.668,0,0,1,1.143,3.627,5.555,5.555,0,0,1-1.154,3.609,3.59,3.59,0,0,1-2.911,1.429,3.417,3.417,0,0,1-2.794-1.429,5.634,5.634,0,0,1-1.117-3.58,5.776,5.776,0,0,1,1.124-3.655A3.464,3.464,0,0,1,1229.42,868.688Zm.042,1.34a2.538,2.538,0,0,0-2.094,1.058,4.287,4.287,0,0,0-.819,2.7,4.191,4.191,0,0,0,.822,2.653,2.53,2.53,0,0,0,4.131-.022,4.273,4.273,0,0,0,.83-2.687,4.163,4.163,0,0,0-.83-2.635A2.5,2.5,0,0,0,1229.462,870.028Z" transform="translate(-1151.917 -868.688)"/><path class="a" d="M1319.508,869.925h3.957v1.256h-2.894v2.751h2.894v1.256h-2.894v4.593h-1.063Z" transform="translate(-1235.267 -869.784)"/><path class="a" d="M1416.727,868.688a3.512,3.512,0,0,1,2.863,1.445,5.665,5.665,0,0,1,1.144,3.627,5.555,5.555,0,0,1-1.155,3.609,3.589,3.589,0,0,1-2.912,1.429,3.416,3.416,0,0,1-2.794-1.429,5.629,5.629,0,0,1-1.117-3.58,5.773,5.773,0,0,1,1.125-3.655A3.463,3.463,0,0,1,1416.727,868.688Zm.042,1.34a2.536,2.536,0,0,0-2.093,1.058,4.281,4.281,0,0,0-.82,2.7,4.187,4.187,0,0,0,.823,2.653,2.529,2.529,0,0,0,4.13-.022,4.27,4.27,0,0,0,.83-2.687,4.16,4.16,0,0,0-.83-2.635A2.5,2.5,0,0,0,1416.769,870.028Z" transform="translate(-1317.901 -868.688)"/><path class="a" d="M1512.47,869.925h.994v9.855H1512.4v-7.669l-2.281,3.81h-.2l-2.308-3.81v7.669h-1.061v-9.855h1.005l2.466,4.047Z" transform="translate(-1401.015 -869.784)"/><path class="a" d="M1589.753,869.43h.745l3.327,9.912h-1.086l-.99-2.92h-3.166l-.927,2.92h-1.092Zm1.56,5.735-1.2-3.569-1.111,3.569Z" transform="translate(-1471.924 -869.345)"/><path class="a" d="M1676.05,869.925h1.008v9.855h-.913l-4.961-7.59v7.59h-1v-9.855h.86l5,7.654Z" transform="translate(-1546.026 -869.784)"/></g></g><g transform="translate(89.255 132.05)"><line class="f" y2="51.032" transform="translate(0.729 0)"/><rect class="g" width="1.459" height="51.032" transform="translate(0 0)"/></g></g></svg>