<svg xmlns="http://www.w3.org/2000/svg" width="110.647" height="60" viewBox="0 0 110.647 60">
  <g id="Group_16305" data-name="Group 16305" transform="translate(-0.11 -8.994)">
    <g id="Group_16305-2" data-name="Group 16305" transform="translate(0.984 14.719)">
      <rect id="Rectangle_1475" data-name="Rectangle 1475" width="0.965" height="0.977" transform="translate(2.388 9.421)" fill="#fff"/>
      <rect id="Rectangle_1476" data-name="Rectangle 1476" width="0.958" height="0.977" transform="translate(3.774 9.421)" fill="#fff"/>
      <rect id="Rectangle_1477" data-name="Rectangle 1477" width="0.962" height="0.976" transform="translate(10.874 2.014)" fill="#fff"/>
      <path id="Path_3010" data-name="Path 3010" d="M15.483,42.7a1.424,1.424,0,0,0,1.285.629H27.09v-3.3c0-1.3-.518-2.245-2.191-2.245a3.62,3.62,0,0,0-2.823,1.571h-.06V34.853h-.9v7.51H16.768c-.609-.017-.872-.385-.872-1.085V38.806h-.908V41.14c0,.838-.254,1.223-.927,1.223H12.469V37.777h-1.56A1.836,1.836,0,0,0,8.9,39.79v2.573H7.117c-1.7,0-2.156-.894-2.156-2.381v-.764h-.9v1.155c0,1.725.786,2.952,3.126,2.952H9.8v-3.3c0-.8.256-1.281,1.052-1.281h.7v4.577h2.507A1.588,1.588,0,0,0,15.483,42.7Zm6.532-.871a2.95,2.95,0,0,1,2.765-3.078c1.079,0,1.419.589,1.419,1.482v2.133H22.015Z" transform="translate(-4.059 -34.853)" fill="#fff"/>
      <path id="Path_3011" data-name="Path 3011" d="M117.405,43.325h1.077a1.382,1.382,0,0,1-1.531,1.43h-1.73v.954h1.741a2.281,2.281,0,0,0,2.5-2.384h3.4c1.244,0,1.83-.671,1.83-2.022V34.853h-.894v6.078c0,.964-.146,1.432-.936,1.432h-3.4v-1.99c0-1.722-.868-2.6-2.279-2.6-1.607,0-2.482,1.057-2.482,2.853C114.7,42.574,115.579,43.325,117.405,43.325Zm-.286-4.577c.953,0,1.379.631,1.379,1.9v1.716h-1.25c-.957,0-1.606-.346-1.606-1.727C115.643,39.271,116.246,38.748,117.119,38.748Z" transform="translate(-90.203 -34.853)" fill="#fff"/>
      <rect id="Rectangle_1478" data-name="Rectangle 1478" width="0.898" height="8.472" transform="translate(35.94 0)" fill="#fff"/>
      <path id="Path_3012" data-name="Path 3012" d="M186.488,43.325h8.238V41.361a2.149,2.149,0,0,0-1.046-2.155l-2.024-1.289,3.621-2.38-.468-.685L190.645,37.6v.733l2.466,1.571a1.584,1.584,0,0,1,.717,1.559v.9h-7.341V38.806h-.912v4.326c0,1.22-.462,1.624-1.484,1.642v.936A2.14,2.14,0,0,0,186.488,43.325Z" transform="translate(-144.234 -34.853)" fill="#fff"/>
      <rect id="Rectangle_1479" data-name="Rectangle 1479" width="0.957" height="0.976" transform="translate(41.251 2.014)" fill="#fff"/>
      <path id="Path_3013" data-name="Path 3013" d="M245.766,43.325h1.795c1.247,0,1.828-.671,1.828-2.022V34.853h-.9v6.078c0,.964-.134,1.432-.931,1.432h-3.593c-.609-.017-.876-.385-.876-1.085,0-.206.026-.457.026-.66,0-1.87-.819-2.841-2.328-2.841-1.585,0-2.457,1.029-2.457,2.807v.477c0,.684-.116,1.3-.941,1.3H234V38.806h-.908v4.326c0,1.22-.465,1.624-1.478,1.642v.936A2.13,2.13,0,0,0,234,43.325h3.4a1.54,1.54,0,0,0,1.438-.671,2.161,2.161,0,0,0,1.845.74,2.29,2.29,0,0,0,1.888-.752,1.417,1.417,0,0,0,1.4.682h1.806Zm-3.677-1.8a1.267,1.267,0,0,1-1.351.918c-1.129,0-1.441-.694-1.441-1.88,0-1.167.48-1.846,1.468-1.846.85,0,1.415.549,1.415,1.69A3.712,3.712,0,0,1,242.089,41.53Z" transform="translate(-181.233 -34.853)" fill="#fff"/>
      <rect id="Rectangle_1480" data-name="Rectangle 1480" width="0.896" height="8.472" transform="translate(69.624 0)" fill="#fff"/>
      <path id="Path_3014" data-name="Path 3014" d="M151.67,109.464a1.477,1.477,0,0,0,.239.83l-.031.049h-1.084v.908h4.224v-.908h-1.436c-.536,0-.994-.232-.994-.823a.911.911,0,0,1,1.036-.877,2.193,2.193,0,0,1,1.146.374l.4-.747a2.814,2.814,0,0,0-1.545-.5A1.708,1.708,0,0,0,151.67,109.464Z" transform="translate(-118.308 -91.624)" fill="#fff"/>
      <path id="Path_3015" data-name="Path 3015" d="M198.176,88.135a2.982,2.982,0,0,0-1.761.552l.435.793a2.523,2.523,0,0,1,1.345-.357c1.785,0,.863,2.687,1.69,3.55l-.051.056h-8.46V90.381a1.957,1.957,0,0,0-2.192-2.246,3.622,3.622,0,0,0-2.819,1.583H186.3v-1.19h-.9v4.2H178.28c-.651,0-.745-.3-.745-.785V85.209h-.908v6.9c0,1.165.357,1.579,1.424,1.579h22.885V92.673C199.846,92.017,201.224,88.135,198.176,88.135Zm-7.694,4.595H186.3v-.541a2.941,2.941,0,0,1,2.758-3.077c1.079,0,1.419.58,1.419,1.48Z" transform="translate(-138.423 -74.061)" fill="#fff"/>
      <rect id="Rectangle_1481" data-name="Rectangle 1481" width="0.902" height="5.991" transform="translate(64.435 11.499)" fill="#fff"/>
      <path id="Path_3016" data-name="Path 3016" d="M292,128.273v.584h2.428v-.584h-.968c-.329,0-.549-.114-.549-.434,0-.263.186-.466.584-.466a1.364,1.364,0,0,1,.689.2l.261-.479a1.715,1.715,0,0,0-.95-.317c-.9,0-1.218.567-1.218,1a.729.729,0,0,0,.154.466l-.008.029Z" transform="translate(-228.25 -106.427)" fill="#fff"/>
      <path id="Path_3017" data-name="Path 3017" d="M296.587,91.3c0,.954-.141,1.427-.931,1.427-.694-.056-.873-.43-.873-1.087V85.209h-.9V90.98c0,1.264-.381,1.811-1.56,1.811a1.791,1.791,0,0,1-1.337-.625l-.634.747a2.723,2.723,0,0,0,2.094.831,2.477,2.477,0,0,0,1.886-.72,1.342,1.342,0,0,0,1.321.662c1.244,0,1.835-.662,1.835-2.016V85.209h-.9Z" transform="translate(-226.971 -74.061)" fill="#fff"/>
      <path id="Path_3018" data-name="Path 3018" d="M13.59,155.785c0,.683-.171,1.3-1.11,1.3H10.362c-1.708,0-2.163-.895-2.163-2.367v-.775H7.307v1.148c0,1.73.77,2.966,3.122,2.966h2.05a1.817,1.817,0,0,0,2.011-2.027v-2.482h-.9Z" transform="translate(-6.588 -127.267)" fill="#fff"/>
      <rect id="Rectangle_1482" data-name="Rectangle 1482" width="0.954" height="0.965" transform="translate(4.604 24.558)" fill="#fff"/>
      <rect id="Rectangle_1483" data-name="Rectangle 1483" width="0.958" height="0.965" transform="translate(3.222 24.558)" fill="#fff"/>
      <path id="Path_3019" data-name="Path 3019" d="M55.039,138.528c-1.583,0-2.461,1.019-2.461,2.8v.48c0,.683-.116,1.3-.936,1.3H47.985c-.659,0-.744-.288-.744-.777V135.6h-.919v6.9c0,1.164.362,1.586,1.423,1.586h3.9a1.538,1.538,0,0,0,1.445-.679,2.147,2.147,0,0,0,1.836.737c1.459,0,2.442-.74,2.442-2.776C57.364,139.463,56.552,138.528,55.039,138.528Zm1.3,3.746a1.376,1.376,0,0,1-1.36.918c-1.023,0-1.435-.679-1.435-1.877,0-1.17.478-1.845,1.468-1.845.853,0,1.408.545,1.416,1.689A3.812,3.812,0,0,1,56.343,142.274Z" transform="translate(-36.966 -113.292)" fill="#fff"/>
      <path id="Path_3020" data-name="Path 3020" d="M139.338,141.673c0,.974-.142,1.434-.939,1.434h-3.587c-.6-.019-.874-.377-.874-1.075,0-.21.017-.468.017-.672,0-1.863-.809-2.833-2.321-2.833-1.586,0-2.458,1.019-2.458,2.8v.48c0,.683-.12,1.3-.935,1.3h-4.07a4.554,4.554,0,0,1-1.737-.263,3.256,3.256,0,0,0,1.516-2.421c0-1.406-1.288-1.895-2.434-1.895-1.491,0-2.635.667-2.635,1.959a3.278,3.278,0,0,0,1.594,2.4,5.509,5.509,0,0,1-1.527.224h-4.418c-.607-.019-.87-.377-.87-1.075V135.6h-.9V141.9c0,.828-.254,1.205-.925,1.205h-4.3v-1.994c0-1.716-.867-2.585-2.283-2.585-1.61,0-2.488,1.053-2.488,2.849,0,1.95.89,2.7,2.712,2.7h1.07a1.383,1.383,0,0,1-1.528,1.431h-1.723v.954h1.737a2.3,2.3,0,0,0,2.5-2.385h4.3a1.572,1.572,0,0,0,1.418-.64,1.43,1.43,0,0,0,1.282.64h4.053a6.256,6.256,0,0,0,2.856-.625,5.989,5.989,0,0,0,2.7.625h4.1a1.527,1.527,0,0,0,1.434-.679,2.172,2.172,0,0,0,1.849.737,2.3,2.3,0,0,0,1.888-.74,1.422,1.422,0,0,0,1.383.681h3.6c1.255,0,1.836-.679,1.836-2.027V135.6h-.9Zm-32.772,1.434h-1.246c-.957,0-1.61-.347-1.61-1.719s.614-1.891,1.48-1.891c.957,0,1.375.632,1.375,1.9Zm14.959-.652c-1.113-.682-1.639-1.479-1.639-1.879,0-.625.518-1.079,1.6-1.079,1.132,0,1.525.5,1.525,1.033C123.013,140.882,122.826,141.552,121.525,142.455Zm11.406-.182a1.27,1.27,0,0,1-1.349.918c-1.132,0-1.438-.679-1.438-1.877,0-1.17.477-1.845,1.468-1.845.85,0,1.415.554,1.415,1.689A3.619,3.619,0,0,1,132.931,142.274Z" transform="translate(-80.911 -113.292)" fill="#fff"/>
      <rect id="Rectangle_1484" data-name="Rectangle 1484" width="0.897" height="8.479" transform="translate(60.786 22.308)" fill="#fff"/>
      <path id="Path_3021" data-name="Path 3021" d="M303.525,148.839c-1.59,0-2.476,1.053-2.476,2.822,0,2.032.886,2.787,2.362,2.787a2.08,2.08,0,0,0,1.388-.5l.057.031v.394a1.4,1.4,0,0,1-1.526,1.45h-1.741v.954h1.729a2.274,2.274,0,0,0,2.5-2.5v-2.764C305.817,149.709,304.905,148.839,303.525,148.839Zm1.069,4.1a1.45,1.45,0,0,1-1.182.549c-1.016,0-1.414-.687-1.414-1.841,0-1.134.469-1.842,1.457-1.842.845,0,1.4.526,1.4,1.687A2.329,2.329,0,0,1,304.593,152.943Z" transform="translate(-235.298 -123.603)" fill="#fff"/>
    </g>
    <g id="Group_16313" data-name="Group 16313" transform="translate(81.677 8.994)">
      <g id="Group_16307" data-name="Group 16307" transform="translate(4.54 0.034)">
        <g id="Group_16306" data-name="Group 16306">
          <path id="Path_3022" data-name="Path 3022" d="M389.07,22.038l5.374-5.144-5.4-7.745Z" transform="translate(-389.041 -9.149)" fill="#fff"/>
        </g>
      </g>
      <g id="Group_16308" data-name="Group 16308" transform="translate(8.337 9.926)" opacity="0.7">
        <path id="Path_3023" data-name="Path 3023" d="M409.25,53.827l-3.055,2.944,3.039,7.752Z" transform="translate(-406.195 -53.827)" fill="#fff"/>
      </g>
      <g id="Group_16309" data-name="Group 16309" transform="translate(11.387 20.654)" opacity="0.4">
        <path id="Path_3024" data-name="Path 3024" d="M419.97,102.284v16.825l4.839-4.466Z" transform="translate(-419.97 -102.284)" fill="#fff"/>
      </g>
      <g id="Group_16310" data-name="Group 16310" transform="translate(11.376 9.934)" opacity="0.7">
        <path id="Path_3025" data-name="Path 3025" d="M419.922,53.865l.011,10.72,4.839,12.359,6.985-6.434Z" transform="translate(-419.922 -53.865)" fill="#fff"/>
      </g>
      <g id="Group_16311" data-name="Group 16311" transform="translate(11.376 0)">
        <path id="Path_3026" data-name="Path 3026" d="M419.922,8.994v9.934l11.835,16.645,5.87-5.4Z" transform="translate(-419.922 -8.994)" fill="#fff"/>
      </g>
      <g id="Group_16312" data-name="Group 16312" transform="translate(0 12.87)">
        <path id="Path_3027" data-name="Path 3027" d="M379.923,74.91l-.011-.031-3.039-7.752-3.747,3.59-.011,15.622-4.58,4.545v11.334l11.387-10.482Z" transform="translate(-368.536 -67.127)" fill="#fff"/>
      </g>
    </g>
    <g id="Group_16316" data-name="Group 16316" transform="translate(75.005 14.95)">
      <g id="Group_16314" data-name="Group 16314" transform="translate(0.455)">
        <line id="Line_25" data-name="Line 25" y2="31.845" fill="#31c0d6"/>
      </g>
      <g id="Group_16315" data-name="Group 16315">
        <rect id="Rectangle_1485" data-name="Rectangle 1485" width="0.91" height="31.845" fill="#fff"/>
      </g>
    </g>
    <g id="Group_16317" data-name="Group 16317" transform="translate(0.11 51.104)">
      <rect id="Rectangle_1486" data-name="Rectangle 1486" width="0.651" height="0.713" transform="translate(0.77 0.971)" fill="#fff"/>
      <rect id="Rectangle_1487" data-name="Rectangle 1487" width="0.651" height="0.713" transform="translate(1.706 0.971)" fill="#fff"/>
      <path id="Path_3028" data-name="Path 3028" d="M17.538,208.944a1.6,1.6,0,0,0-1.579,1.762,1.488,1.488,0,0,0,.984,1.616l-.008.034a3.382,3.382,0,0,0-.524-.034H3.84c-.46-.035-.6-.309-.6-1.057v-2.32H2.634v.387C.523,209.6.11,210.645.11,211.4a1.26,1.26,0,0,0,1.4,1.332,1.722,1.722,0,0,0,1.23-.5,1.031,1.031,0,0,0,1.072.791h13.73c1,0,1.595-.584,1.595-2.062C19.133,209.7,18.609,208.944,17.538,208.944Zm-14.9,2.174a.927.927,0,0,1-1.048.954.732.732,0,0,1-.833-.748c0-.4.246-1.134,1.881-1.341Zm15.563.962c-.873-.094-1.587-.412-1.587-1.332,0-.567.27-1.109.936-1.109s.952.473.952,1.28A1.653,1.653,0,0,1,18.2,212.08Z" transform="translate(-0.11 -206.787)" fill="#fff"/>
      <rect id="Rectangle_1488" data-name="Rectangle 1488" width="0.651" height="0.713" transform="translate(17.087 0.756)" fill="#fff"/>
      <path id="Path_3029" data-name="Path 3029" d="M103.414,203.678c0,.713-.1,1.057-.635,1.057h-1.22c-.413-.017-.6-.284-.6-.8,0-.155.016-.344.016-.49,0-1.375-.555-2.088-1.579-2.088-1.079,0-1.674.756-1.674,2.062v.352c0,.507-.079.962-.635.962H95.546a2.945,2.945,0,0,1-1.182-.2,2.431,2.431,0,0,0,1.031-1.779c0-1.04-.873-1.4-1.658-1.4-1.008,0-1.786.49-1.786,1.444a2.434,2.434,0,0,0,1.079,1.761,3.351,3.351,0,0,1-1.032.172H87.3v-2.621h-.619V205.3c0,.894-.317,1.194-1.008,1.211v.688c1.182-.026,1.6-.7,1.627-1.762h4.45a3.93,3.93,0,0,0,1.944-.456,3.781,3.781,0,0,0,1.833.456h1.569a1.013,1.013,0,0,0,.976-.49,1.424,1.424,0,0,0,1.254.541,1.5,1.5,0,0,0,1.285-.55.948.948,0,0,0,.949.5h1.223c.849,0,1.246-.49,1.246-1.487V199.2h-.611Zm-9.661.567a2.2,2.2,0,0,1-1.119-1.383c0-.456.349-.791,1.087-.791.77,0,1.04.37,1.04.756C94.761,203.094,94.634,203.584,93.753,204.245Zm6.529-.129a.868.868,0,0,1-.921.679c-.762,0-.976-.507-.976-1.383,0-.859.325-1.358,1-1.358.579,0,.96.4.96,1.246A2.968,2.968,0,0,1,100.282,204.117Z" transform="translate(-66.727 -199.201)" fill="#fff"/>
      <rect id="Rectangle_1489" data-name="Rectangle 1489" width="0.611" height="6.239" transform="translate(38.29 0)" fill="#fff"/>
      <rect id="Rectangle_1490" data-name="Rectangle 1490" width="0.651" height="0.713" transform="translate(41.899 1.487)" fill="#fff"/>
      <rect id="Rectangle_1491" data-name="Rectangle 1491" width="0.651" height="0.713" transform="translate(55.947 6.943)" fill="#fff"/>
      <path id="Path_3030" data-name="Path 3030" d="M201.271,209.837h-.611v2.122c0,.653-.04,1.057-.635,1.057h-13.3V210.4H186.1v3.188c0,.894-.317,1.194-1.008,1.211v.688c1.182-.026,1.6-.7,1.627-1.762h13.3c.849,0,1.246-.49,1.246-1.487Z" transform="translate(-144.142 -207.482)" fill="#fff"/>
      <rect id="Rectangle_1492" data-name="Rectangle 1492" width="0.651" height="0.713" transform="translate(56.883 6.943)" fill="#fff"/>
      <rect id="Rectangle_1493" data-name="Rectangle 1493" width="0.651" height="0.713" transform="translate(58.747 1.487)" fill="#fff"/>
      <rect id="Rectangle_1494" data-name="Rectangle 1494" width="0.651" height="0.713" transform="translate(69.289 0.971)" fill="#fff"/>
      <rect id="Rectangle_1495" data-name="Rectangle 1495" width="0.651" height="0.713" transform="translate(70.225 0.971)" fill="#fff"/>
      <path id="Path_3031" data-name="Path 3031" d="M273.254,211.264c0,.653-.04,1.057-.635,1.057h-.935a2.945,2.945,0,0,1-1.182-.2,2.432,2.432,0,0,0,1.032-1.779c0-1.04-.873-1.4-1.659-1.4-1.008,0-1.786.49-1.786,1.444a2.434,2.434,0,0,0,1.079,1.761,3.351,3.351,0,0,1-1.032.172h-5.314V209.7H262.2v3.188c0,.894-.317,1.194-1.008,1.211v.688c1.182-.026,1.6-.7,1.627-1.762h5.06a3.93,3.93,0,0,0,1.944-.456,3.781,3.781,0,0,0,1.833.456h.958c.849,0,1.246-.49,1.246-1.487v-2.4h-.611Zm-3.363.567a2.2,2.2,0,0,1-1.119-1.383c0-.456.349-.791,1.087-.791.77,0,1.04.37,1.04.756C270.9,210.68,270.773,211.17,269.892,211.831Z" transform="translate(-203.394 -206.787)" fill="#fff"/>
    </g>
    <g id="Group_16318" data-name="Group 16318" transform="translate(0.158 60.943)">
      <rect id="Rectangle_1496" data-name="Rectangle 1496" width="0.651" height="0.713" transform="translate(1.214 1.71)" fill="#fff"/>
      <path id="Path_3032" data-name="Path 3032" d="M2.84,260.243c0,.653-.23,1.16-.952,1.16-.738,0-.952-.507-.952-1.16v-2.312H.325v2.552a1.454,1.454,0,0,0,1.555,1.633,1.536,1.536,0,0,0,1.571-1.658v-3.429H2.84Z" transform="translate(-0.325 -254.065)" fill="#fff"/>
      <path id="Path_3033" data-name="Path 3033" d="M129.327,244.215a.542.542,0,0,0-.54-.576.525.525,0,0,0-.3.928v.026l-.754.232v.353l1.087-.318A.672.672,0,0,0,129.327,244.215Zm-.722-.008a.19.19,0,0,1,.182-.207c.1,0,.191.069.191.232a.272.272,0,0,1-.135.232A.249.249,0,0,1,128.6,244.206Z" transform="translate(-99.525 -243.639)" fill="#fff"/>
      <path id="Path_3034" data-name="Path 3034" d="M43.869,246.758a1.13,1.13,0,0,1,.92.43l.429-.55a1.7,1.7,0,0,0-1.333-.61c-1.1,0-1.706.894-1.706,2.037a1.878,1.878,0,0,0,.365,1.3l-.04.043H38c-.413-.017-.6-.284-.6-.8,0-.155.016-.344.016-.49,0-1.375-.555-2.088-1.579-2.088-1.079,0-1.674.757-1.674,2.062v.352c0,.507-.079.963-.635.963H20.048c-.444,0-.508-.215-.508-.576v-4.958h-.619v5.079c0,.851.246,1.16.968,1.16H33.532a1.013,1.013,0,0,0,.976-.49,1.423,1.423,0,0,0,1.254.542,1.5,1.5,0,0,0,1.285-.55.948.948,0,0,0,.949.5h7.087v-.7H44.011c-1.024,0-1.159-.825-1.159-1.3C42.853,247.179,43.281,246.758,43.869,246.758Zm-7.147,2.028a.868.868,0,0,1-.921.679c-.762,0-.976-.507-.976-1.383,0-.859.325-1.358,1-1.358.579,0,.96.4.96,1.246A2.966,2.966,0,0,1,36.722,248.786Z" transform="translate(-14.804 -243.82)" fill="#fff"/>
      <rect id="Rectangle_1497" data-name="Rectangle 1497" width="0.651" height="0.713" transform="translate(33.951 1.022)" fill="#fff"/>
      <rect id="Rectangle_1498" data-name="Rectangle 1498" width="0.651" height="0.713" transform="translate(34.887 1.022)" fill="#fff"/>
      <rect id="Rectangle_1499" data-name="Rectangle 1499" width="0.651" height="0.713" transform="translate(41.78 1.538)" fill="#fff"/>
      <path id="Path_3035" data-name="Path 3035" d="M186.578,245.847l-.492.438a3.615,3.615,0,0,1,.73,2.14c0,.61-.206,1.083-.7,1.083s-.7-.4-.7-1.006v-1.718h-.6v1.478c0,.7-.278,1.143-.913,1.143h-.23v-2.621h-.611V249.4h-4.521c-.413-.017-.6-.284-.6-.8v-4.735h-.611v4.64c0,.61-.175.894-.635.894h-2.307v-1.728c0-.954-.357-1.65-1.492-1.65a2.426,2.426,0,0,0-1.92,1.16h-.04v-3.317h-.611V249.4H160.044c-.413-.017-.6-.284-.6-.8v-1.822h-.611v1.727c0,.61-.174.894-.635.894h-4.274c-.46-.034-.6-.309-.6-1.057v-2.32h-.611v.387c-2.111.267-2.523,1.315-2.523,2.071a1.26,1.26,0,0,0,1.4,1.332,1.724,1.724,0,0,0,1.23-.5,1.031,1.031,0,0,0,1.071.79H158.2a1.04,1.04,0,0,0,.968-.464.94.94,0,0,0,.872.464H176.7a1.04,1.04,0,0,0,.968-.464.94.94,0,0,0,.871.464H183.9a1.145,1.145,0,0,0,1.119-.567h.032a1.132,1.132,0,0,0,1.071.627c.984,0,1.317-.842,1.317-1.762A4.319,4.319,0,0,0,186.578,245.847ZM152.722,248.2a.927.927,0,0,1-1.047.954.732.732,0,0,1-.833-.748c0-.4.246-1.134,1.881-1.341Zm21.061,1.2h-2.841v-.4a2.116,2.116,0,0,1,1.881-2.269c.73,0,.96.43.96,1.091Z" transform="translate(-117.018 -243.82)" fill="#fff"/>
    </g>
  </g>
</svg>
