<svg xmlns="http://www.w3.org/2000/svg" width="211" height="114.417" viewBox="0 0 211 114.417"><defs><style>.a{fill:#231f20;}.b{fill:#133c8a;}.c{fill:#90afae;}.d{fill:#7e8daa;}.e{fill:#c4c7c8;}.f{fill:#00a89c;}.g{fill:#31c0d6;}</style></defs><g transform="translate(-0.11 -8.994)"><g transform="translate(1.777 19.911)"><rect class="a" width="1.84" height="1.863" transform="translate(4.554 17.966)"/><rect class="a" width="1.827" height="1.863" transform="translate(7.197 17.966)"/><rect class="a" width="1.835" height="1.861" transform="translate(20.737 3.84)"/><path class="a" d="M25.844,49.811a2.716,2.716,0,0,0,2.45,1.2H47.977v-6.3c0-2.479-.988-4.282-4.179-4.282a6.9,6.9,0,0,0-5.383,2.995H38.3V34.853h-1.71V49.174h-8.3c-1.162-.032-1.663-.734-1.663-2.069V42.391H24.9v4.452c0,1.6-.485,2.332-1.768,2.332H20.1V40.429H17.121a3.5,3.5,0,0,0-3.827,3.84v4.906H9.89c-3.248,0-4.111-1.7-4.111-4.541V43.178H4.059v2.2c0,3.29,1.5,5.63,5.962,5.63H15.01V44.725c0-1.525.488-2.444,2.007-2.444h1.335V51.01h4.781A3.027,3.027,0,0,0,25.844,49.811ZM38.3,48.15c0-2.661,1.877-5.869,5.274-5.869,2.057,0,2.706,1.123,2.706,2.826v4.067H38.3Z" transform="translate(-4.059 -34.853)"/><path class="a" d="M119.861,51.01h2.054A2.635,2.635,0,0,1,119,53.736h-3.3v1.82h3.321c2.6,0,4.679-1.405,4.76-4.547h6.475c2.373,0,3.491-1.28,3.491-3.855v-12.3h-1.7v11.59c0,1.838-.279,2.732-1.786,2.732h-6.475v-3.8c0-3.285-1.656-4.951-4.346-4.951-3.065,0-4.734,2.016-4.734,5.44C114.7,49.576,116.379,51.01,119.861,51.01Zm-.545-8.729c1.818,0,2.631,1.2,2.631,3.622v3.272h-2.383c-1.825,0-3.063-.659-3.063-3.293C116.5,43.279,117.651,42.281,119.316,42.281Z" transform="translate(-67.987 -34.853)"/><rect class="a" width="1.712" height="16.157" transform="translate(68.537 0)"/><path class="a" d="M188.661,51.01H204.37V47.264c0-1.46-.076-2.9-1.994-4.109l-3.86-2.458,6.905-4.538-.892-1.306-7.94,5.235v1.4l4.7,3a3.021,3.021,0,0,1,1.368,2.974v1.72h-14V42.391h-1.739v8.249c0,2.326-.881,3.1-2.831,3.131v1.785C187.411,55.5,188.589,53.758,188.661,51.01Z" transform="translate(-108.085 -34.853)"/><rect class="a" width="1.825" height="1.861" transform="translate(78.664 3.84)"/><path class="a" d="M258.6,51.01h3.423c2.377,0,3.485-1.28,3.485-3.855v-12.3H263.8v11.59c0,1.838-.255,2.732-1.775,2.732h-6.851c-1.162-.032-1.671-.734-1.671-2.069,0-.393.05-.871.05-1.258,0-3.566-1.561-5.418-4.439-5.418-3.022,0-4.685,1.962-4.685,5.352v.909c0,1.3-.221,2.484-1.794,2.484H236.16V42.391h-1.731v8.249c0,2.326-.887,3.1-2.818,3.131v1.785c3.313-.054,4.492-1.8,4.549-4.547h6.477a2.937,2.937,0,0,0,2.743-1.28,4.121,4.121,0,0,0,3.519,1.411,4.367,4.367,0,0,0,3.6-1.433,2.7,2.7,0,0,0,2.661,1.3H258.6Zm-7.013-3.425a2.417,2.417,0,0,1-2.575,1.751c-2.153,0-2.748-1.323-2.748-3.585,0-2.225.915-3.519,2.8-3.519,1.622,0,2.7,1.047,2.7,3.223A7.078,7.078,0,0,1,251.592,47.585Z" transform="translate(-135.542 -34.853)"/><rect class="a" width="1.708" height="16.157" transform="translate(132.77 0)"/><path class="a" d="M152.465,111a2.817,2.817,0,0,0,.456,1.582l-.06.094h-2.067v1.731h8.055v-1.731h-2.737c-1.022,0-1.895-.442-1.895-1.569a1.738,1.738,0,0,1,1.975-1.672,4.182,4.182,0,0,1,2.185.713l.761-1.424a5.367,5.367,0,0,0-2.946-.958C153.406,107.767,152.465,109.524,152.465,111Z" transform="translate(-88.845 -76.984)"/><path class="a" d="M217.719,90.789a5.687,5.687,0,0,0-3.358,1.053l.829,1.512a4.811,4.811,0,0,1,2.565-.68c3.4,0,1.645,5.124,3.222,6.769l-.1.107H209.518l-.016,0v0h-4.755V95.072c0-2.458-1-4.283-4.181-4.283a6.908,6.908,0,0,0-5.375,3.018h-.109v-2.27h-1.716V99.55H179.779c-1.241,0-1.42-.566-1.42-1.5V85.209h-1.731V98.364c0,2.222.68,3.011,2.716,3.011H209.5v0l.016,0h13.466V99.443C220.9,98.191,223.532,90.789,217.719,90.789ZM203.047,99.55h-7.966V98.518c0-2.669,1.864-5.868,5.26-5.868,2.057,0,2.706,1.107,2.706,2.822Z" transform="translate(-103.772 -63.949)"/><rect class="a" width="1.721" height="11.425" transform="translate(122.875 21.928)"/><path class="a" d="M292,129.627v1.114h4.63v-1.114h-1.846c-.628,0-1.048-.218-1.048-.828,0-.5.354-.889,1.113-.889a2.6,2.6,0,0,1,1.314.387l.5-.914a3.27,3.27,0,0,0-1.811-.6c-1.71,0-2.323,1.082-2.323,1.9a1.39,1.39,0,0,0,.294.889l-.015.056Z" transform="translate(-170.434 -87.969)"/><path class="a" d="M302.24,96.828c0,1.82-.269,2.722-1.775,2.722-1.324-.107-1.665-.821-1.665-2.073V85.209h-1.71v11c0,2.411-.727,3.453-2.974,3.453a3.416,3.416,0,0,1-2.55-1.191l-1.21,1.424a5.192,5.192,0,0,0,3.994,1.585,4.723,4.723,0,0,0,3.6-1.373,2.56,2.56,0,0,0,2.518,1.263c2.372,0,3.5-1.263,3.5-3.845V85.209H302.24Z" transform="translate(-169.485 -63.949)"/><path class="a" d="M19.288,157.818c0,1.3-.326,2.473-2.117,2.473H13.133c-3.256,0-4.124-1.706-4.124-4.514V154.3h-1.7v2.189c0,3.3,1.468,5.656,5.954,5.656h3.91c2.414,0,3.835-1.3,3.835-3.866v-4.734H19.288Z" transform="translate(-5.936 -103.435)"/><rect class="a" width="1.82" height="1.841" transform="translate(8.78 46.831)"/><rect class="a" width="1.827" height="1.841" transform="translate(6.144 46.831)"/><path class="a" d="M62.943,141.187c-3.019,0-4.692,1.942-4.692,5.344v.915c0,1.3-.221,2.473-1.785,2.473H49.493c-1.256,0-1.418-.55-1.418-1.482V135.6H46.323V148.75c0,2.219.691,3.024,2.713,3.024h7.43a2.933,2.933,0,0,0,2.755-1.3,4.094,4.094,0,0,0,3.5,1.405c2.782,0,4.656-1.411,4.656-5.295C67.378,142.97,65.829,141.187,62.943,141.187Zm2.487,7.143a2.624,2.624,0,0,1-2.593,1.751c-1.95,0-2.737-1.3-2.737-3.579,0-2.231.912-3.519,2.8-3.519,1.626,0,2.685,1.04,2.7,3.221A7.27,7.27,0,0,1,65.43,148.33Z" transform="translate(-28.48 -93.064)"/><path class="a" d="M172.51,147.185c0,1.858-.271,2.735-1.791,2.735h-6.84c-1.15-.035-1.666-.718-1.666-2.049,0-.4.032-.893.032-1.281,0-3.553-1.543-5.4-4.426-5.4-3.024,0-4.688,1.942-4.688,5.344v.915c0,1.3-.229,2.473-1.783,2.473h-7.761a8.685,8.685,0,0,1-3.313-.5,6.208,6.208,0,0,0,2.891-4.617c0-2.681-2.455-3.613-4.642-3.613-2.844,0-5.026,1.272-5.026,3.736,0,1.114.74,2.889,3.039,4.57a10.506,10.506,0,0,1-2.912.426H125.2c-1.158-.035-1.658-.718-1.658-2.049V135.6h-1.725v12.025c0,1.58-.485,2.3-1.764,2.3H111.86v-3.8c0-3.272-1.653-4.93-4.353-4.93-3.071,0-4.744,2.008-4.744,5.433,0,3.718,1.7,5.154,5.172,5.154h2.041a2.638,2.638,0,0,1-2.914,2.729h-3.285v1.82h3.313c2.6,0,4.666-1.426,4.77-4.549h8.191a3,3,0,0,0,2.7-1.22,2.728,2.728,0,0,0,2.445,1.22h7.729a11.931,11.931,0,0,0,5.446-1.191,11.421,11.421,0,0,0,5.148,1.191h7.826a2.912,2.912,0,0,0,2.734-1.3,4.141,4.141,0,0,0,3.527,1.405,4.392,4.392,0,0,0,3.6-1.411,2.712,2.712,0,0,0,2.637,1.3l.016,0h6.856c2.393,0,3.5-1.3,3.5-3.866V135.6H172.51Zm-62.495,2.735H107.64c-1.825,0-3.071-.661-3.071-3.278s1.17-3.606,2.823-3.606c1.824,0,2.623,1.2,2.623,3.621Zm28.525-1.243c-2.121-1.3-3.126-2.82-3.126-3.583,0-1.193.988-2.058,3.056-2.058,2.158,0,2.909.952,2.909,1.971C141.38,145.676,141.022,146.954,138.541,148.677Zm21.751-.346a2.423,2.423,0,0,1-2.573,1.751c-2.159,0-2.742-1.3-2.742-3.579,0-2.231.91-3.519,2.8-3.519,1.621,0,2.7,1.056,2.7,3.221A6.9,6.9,0,0,1,160.292,148.33Z" transform="translate(-61.092 -93.064)"/><rect class="a" width="1.71" height="16.17" transform="translate(115.917 42.54)"/><path class="a" d="M305.77,148.839c-3.032,0-4.721,2.008-4.721,5.382,0,3.875,1.69,5.314,4.5,5.314a3.968,3.968,0,0,0,2.646-.957l.109.059v.752a2.662,2.662,0,0,1-2.909,2.766h-3.321v1.82h3.3c2.763,0,4.766-1.478,4.766-4.765v-5.271C310.142,150.5,308.4,148.839,305.77,148.839Zm2.038,7.826a2.765,2.765,0,0,1-2.255,1.046c-1.937,0-2.7-1.31-2.7-3.51,0-2.162.893-3.513,2.778-3.513,1.611,0,2.675,1,2.675,3.217C308.309,155.273,308.265,156.068,307.808,156.665Z" transform="translate(-175.664 -100.716)"/></g><g transform="translate(155.654 8.994)"><g transform="translate(8.657 0.065)"><path class="b" d="M389.1,33.728l10.247-9.81-10.3-14.769Z" transform="translate(-389.041 -9.149)"/></g><g transform="translate(15.899 18.928)"><path class="b" d="M412.021,53.827l-5.826,5.615,5.8,14.783Z" transform="translate(-406.195 -53.827)"/></g><g transform="translate(21.715 39.386)"><path class="c" d="M419.97,102.284v32.085l9.227-8.516Z" transform="translate(-419.97 -102.284)"/></g><g transform="translate(21.694 18.944)"><path class="d" d="M419.922,53.865l.02,20.442,9.227,23.568L442.49,85.606Z" transform="translate(-419.922 -53.865)"/></g><g transform="translate(21.694 0)"><path class="e" d="M419.922,8.994V27.938L442.49,59.679l11.193-10.3Z" transform="translate(-419.922 -8.994)"/></g><g transform="translate(0 24.543)"><path class="f" d="M390.251,81.97l-.02-.06-5.8-14.783-7.145,6.846-.02,29.79-8.733,8.667v21.613l21.715-19.989Z" transform="translate(-368.536 -67.127)"/></g></g><g transform="translate(142.932 20.352)"><g transform="translate(0.867)"><line class="g" y2="60.727"/></g><rect class="a" width="1.735" height="60.727"/></g><g transform="translate(0.11 89.297)"><rect class="f" width="1.241" height="1.36" transform="translate(1.468 1.852)"/><rect class="f" width="1.241" height="1.36" transform="translate(3.254 1.852)"/><path class="f" d="M33.344,208.944c-1.892,0-3.012,1.475-3.012,3.359,0,1.655.651,2.7,1.877,3.081l-.015.065a6.448,6.448,0,0,0-1-.065H7.223c-.878-.066-1.135-.59-1.135-2.016v-4.424H4.922v.738C.9,210.189.11,212.189.11,213.631a2.4,2.4,0,0,0,2.664,2.54,3.285,3.285,0,0,0,2.345-.95,1.967,1.967,0,0,0,2.043,1.508H33.344c1.906,0,3.041-1.115,3.041-3.933C36.386,210.386,35.387,208.944,33.344,208.944ZM4.922,213.09a1.768,1.768,0,0,1-2,1.819,1.4,1.4,0,0,1-1.589-1.426c0-.754.469-2.163,3.586-2.556ZM34.6,214.925c-1.665-.18-3.026-.787-3.026-2.54,0-1.081.514-2.114,1.785-2.114,1.286,0,1.816.9,1.816,2.441A3.152,3.152,0,0,1,34.6,214.925Z" transform="translate(-0.11 -204.831)"/><rect class="f" width="1.241" height="1.36" transform="translate(32.584 1.442)"/><path class="f" d="M119.508,207.739c0,1.36-.182,2.016-1.21,2.016h-2.326c-.787-.033-1.135-.541-1.135-1.524,0-.295.03-.656.03-.934,0-2.622-1.059-3.982-3.011-3.982-2.058,0-3.193,1.442-3.193,3.933v.672c0,.966-.152,1.835-1.211,1.835H104.5a5.615,5.615,0,0,1-2.254-.377,4.636,4.636,0,0,0,1.967-3.392c0-1.983-1.664-2.671-3.163-2.671-1.922,0-3.4.934-3.4,2.753a4.641,4.641,0,0,0,2.058,3.359,6.39,6.39,0,0,1-1.967.328H88.771v-5h-1.18v6.079c0,1.7-.605,2.278-1.922,2.31v1.311c2.254-.049,3.057-1.327,3.1-3.359h8.485a7.494,7.494,0,0,0,3.708-.869,7.21,7.21,0,0,0,3.5.869h2.993a1.932,1.932,0,0,0,1.861-.934A2.715,2.715,0,0,0,111.7,211.2a2.862,2.862,0,0,0,2.451-1.049,1.809,1.809,0,0,0,1.809.95H118.3c1.619,0,2.376-.934,2.376-2.835V199.2h-1.166Zm-18.423,1.082c-1.453-.951-2.133-2.065-2.133-2.638,0-.869.666-1.508,2.073-1.508,1.468,0,1.983.705,1.983,1.442C103.007,206.624,102.765,207.559,101.085,208.821Zm12.45-.246a1.655,1.655,0,0,1-1.755,1.294c-1.453,0-1.861-.967-1.861-2.638,0-1.639.621-2.589,1.907-2.589,1.1,0,1.831.77,1.831,2.376A5.66,5.66,0,0,1,113.535,208.575Z" transform="translate(-49.547 -199.201)"/><rect class="f" width="1.165" height="11.897" transform="translate(73.017 0)"/><rect class="f" width="1.241" height="1.36" transform="translate(79.899 2.835)"/><rect class="f" width="1.241" height="1.36" transform="translate(106.688 13.241)"/><path class="f" d="M215.94,209.837h-1.165v4.047c0,1.245-.076,2.016-1.211,2.016H188.2v-5h-1.18v6.079c0,1.7-.605,2.278-1.922,2.31V220.6c2.255-.049,3.057-1.327,3.1-3.359h25.366c1.619,0,2.375-.934,2.375-2.835Z" transform="translate(-106.997 -205.347)"/><rect class="f" width="1.241" height="1.36" transform="translate(108.474 13.241)"/><rect class="f" width="1.241" height="1.36" transform="translate(112.028 2.835)"/><rect class="f" width="1.241" height="1.36" transform="translate(132.131 1.852)"/><rect class="f" width="1.241" height="1.36" transform="translate(133.916 1.852)"/><path class="f" d="M284.19,213.368c0,1.245-.076,2.016-1.21,2.016H281.2a5.615,5.615,0,0,1-2.254-.377,4.637,4.637,0,0,0,1.967-3.392c0-1.983-1.665-2.671-3.163-2.671-1.922,0-3.4.934-3.4,2.753a4.642,4.642,0,0,0,2.058,3.359,6.39,6.39,0,0,1-1.967.328H264.3v-5h-1.18v6.079c0,1.7-.605,2.278-1.922,2.31v1.311c2.254-.049,3.057-1.327,3.1-3.359h9.649a7.493,7.493,0,0,0,3.708-.869,7.211,7.211,0,0,0,3.5.869h1.828c1.619,0,2.376-.934,2.376-2.835v-4.572H284.19Zm-6.413,1.082c-1.452-.951-2.133-2.065-2.133-2.638,0-.869.666-1.508,2.073-1.508,1.468,0,1.983.705,1.983,1.442C279.7,212.254,279.457,213.188,277.777,214.45Z" transform="translate(-150.97 -204.831)"/></g><g transform="translate(0.201 108.058)"><rect class="b" width="1.241" height="1.36" transform="translate(2.315 3.26)"/><path class="b" d="M5.122,263.157c0,1.245-.439,2.212-1.816,2.212-1.408,0-1.816-.966-1.816-2.212v-4.408H.325v4.867c0,1.721.847,3.114,2.966,3.114a2.928,2.928,0,0,0,3-3.162v-6.538H5.122Z" transform="translate(-0.325 -251.376)"/><path class="b" d="M130.773,244.737a1.033,1.033,0,0,0-1.029-1.1,1,1,0,0,0-.575,1.769v.049l-1.437.442v.673l2.073-.607A1.282,1.282,0,0,0,130.773,244.737Zm-1.377-.016a.362.362,0,0,1,.348-.394c.2,0,.363.131.363.443a.519.519,0,0,1-.257.442A.475.475,0,0,1,129.4,244.721Z" transform="translate(-73.943 -243.639)"/><path class="b" d="M66.5,249.376a2.156,2.156,0,0,1,1.755.82l.817-1.049a3.236,3.236,0,0,0-2.542-1.164c-2.1,0-3.253,1.7-3.253,3.884a3.581,3.581,0,0,0,.7,2.474l-.076.082H55.3c-.787-.033-1.135-.541-1.135-1.524,0-.295.03-.656.03-.934,0-2.622-1.059-3.982-3.011-3.982-2.058,0-3.193,1.443-3.193,3.933v.672c0,.967-.151,1.836-1.21,1.836H21.07c-.847,0-.968-.41-.968-1.1v-9.455h-1.18v9.685c0,1.622.469,2.212,1.846,2.212H46.784a1.931,1.931,0,0,0,1.861-.934,2.713,2.713,0,0,0,2.391,1.033,2.862,2.862,0,0,0,2.451-1.049,1.808,1.808,0,0,0,1.809.95H68.81v-1.343H66.767c-1.952,0-2.209-1.573-2.209-2.474C64.558,250.179,65.375,249.376,66.5,249.376Zm-13.629,3.868a1.654,1.654,0,0,1-1.755,1.294c-1.453,0-1.861-.967-1.861-2.638,0-1.639.62-2.589,1.907-2.589,1.1,0,1.831.77,1.831,2.376A5.655,5.655,0,0,1,52.866,253.244Z" transform="translate(-11.07 -243.773)"/><rect class="b" width="1.241" height="1.36" transform="translate(64.743 1.95)"/><rect class="b" width="1.241" height="1.36" transform="translate(66.528 1.95)"/><rect class="b" width="1.241" height="1.36" transform="translate(79.672 2.933)"/><path class="b" d="M219.573,247.64l-.938.835a6.893,6.893,0,0,1,1.392,4.081c0,1.163-.393,2.064-1.332,2.064-.953,0-1.332-.77-1.332-1.918v-3.277h-1.15v2.818c0,1.327-.529,2.18-1.74,2.18h-.439v-5H212.87v5h-8.622c-.787-.033-1.135-.541-1.135-1.524v-9.029h-1.165v8.849c0,1.163-.333,1.7-1.211,1.7h-4.4V251.13c0-1.819-.681-3.146-2.845-3.146a4.626,4.626,0,0,0-3.662,2.213h-.076v-6.325H188.59v10.553H168.972c-.787-.033-1.135-.541-1.135-1.524v-3.474h-1.165v3.293c0,1.163-.333,1.7-1.21,1.7h-8.15c-.878-.065-1.135-.59-1.135-2.016v-4.425h-1.165v.737c-4.025.508-4.812,2.507-4.812,3.95a2.4,2.4,0,0,0,2.664,2.54,3.288,3.288,0,0,0,2.345-.95,1.967,1.967,0,0,0,2.043,1.507h8.211a1.984,1.984,0,0,0,1.846-.884,1.793,1.793,0,0,0,1.662.884h31.767a1.983,1.983,0,0,0,1.846-.884,1.792,1.792,0,0,0,1.662.884h10.229a2.183,2.183,0,0,0,2.134-1.082h.06a2.158,2.158,0,0,0,2.043,1.2c1.876,0,2.512-1.606,2.512-3.359A8.237,8.237,0,0,0,219.573,247.64Zm-64.562,4.49a1.768,1.768,0,0,1-2,1.819,1.4,1.4,0,0,1-1.589-1.426c0-.754.469-2.163,3.586-2.556Zm40.162,2.294h-5.417v-.754c0-1.966,1.271-4.326,3.586-4.326,1.392,0,1.831.819,1.831,2.081Z" transform="translate(-86.924 -243.773)"/></g></g></svg>